<?xml version="1.0" encoding="UTF-8"?>
<svg width="1200pt" height="1200pt" version="1.1" viewBox="0 0 1200 1200" xmlns="http://www.w3.org/2000/svg">
 <path d="m300 50h-150c-13.801 0-25 11.176-25 25v1050c0 13.824 11.199 25 25 25h150c13.801 0 25-11.176 25-25v-1050c0-13.824-11.199-25-25-25zm-25 1050h-100v-50h100zm0-100h-100v-800h100zm0-850h-100v-50h100zm-75 400v-275c0-13.824 11.199-25 25-25s25 11.176 25 25v275c0 13.824-11.199 25-25 25s-25-11.176-25-25zm0 375v-275c0-13.824 11.199-25 25-25s25 11.176 25 25v275c0 13.824-11.199 25-25 25s-25-11.176-25-25zm350-875h-150c-13.801 0-25 11.176-25 25v1050c0 13.824 11.199 25 25 25h150c13.801 0 25-11.176 25-25v-1050c0-13.824-11.199-25-25-25zm-25 1050h-100v-50h100zm0-100h-100v-800h100zm0-850h-100v-50h100zm-75 400v-275c0-13.824 11.199-25 25-25s25 11.176 25 25v275c0 13.824-11.199 25-25 25s-25-11.176-25-25zm0 375v-275c0-13.824 11.199-25 25-25s25 11.176 25 25v275c0 13.824-11.199 25-25 25s-25-11.176-25-25zm350-875h-150c-13.801 0-25 11.176-25 25v1050c0 13.824 11.199 25 25 25h150c13.801 0 25-11.176 25-25v-1050c0-13.824-11.199-25-25-25zm-25 1050h-100v-50h100zm0-100h-100v-800h100zm0-850h-100v-50h100zm-75 400v-275c0-13.824 11.199-25 25-25s25 11.176 25 25v275c0 13.824-11.199 25-25 25s-25-11.176-25-25zm0 375v-275c0-13.824 11.199-25 25-25s25 11.176 25 25v275c0 13.824-11.199 25-25 25s-25-11.176-25-25zm350-875h-150c-13.801 0-25 11.176-25 25v1050c0 13.824 11.199 25 25 25h150c13.801 0 25-11.176 25-25v-1050c0-13.824-11.199-25-25-25zm-25 1050h-100v-50h100zm0-100h-100v-800h100zm0-850h-100v-50h100zm-75 400v-275c0-13.824 11.199-25 25-25s25 11.176 25 25v275c0 13.824-11.199 25-25 25s-25-11.176-25-25zm0 375v-275c0-13.824 11.199-25 25-25s25 11.176 25 25v275c0 13.824-11.199 25-25 25s-25-11.176-25-25z"/>
</svg>
