<?xml version="1.0" encoding="UTF-8"?>
<svg width="1200pt" height="1200pt" version="1.1" viewBox="0 0 1200 1200" xmlns="http://www.w3.org/2000/svg">
 <path d="m989.02 699.43c-5.5391-0.027343-10.867 2.1289-14.824 6.0117-3.9531 3.8789-6.2148 9.1641-6.2891 14.703-0.074218 5.5391 2.043 10.883 5.8906 14.867 3.8438 3.9844 9.1133 6.2891 14.648 6.4102 5.5391 0.12109 10.902-1.9531 14.918-5.7695 4.0156-3.8125 6.3633-9.0625 6.5273-14.598 0.16797-5.6562-1.9531-11.141-5.8828-15.211-3.9258-4.0703-9.332-6.3828-14.988-6.4141z"/>
 <path d="m989.02 611.94c-28.738 0-56.301 11.402-76.641 31.703-20.34 20.301-31.793 47.84-31.848 76.578-0.054687 28.734 11.293 56.32 31.555 76.699 20.262 20.379 47.781 31.883 76.52 31.996 28.734 0.10938 56.34-11.188 76.758-31.41 20.418-20.223 31.977-47.719 32.145-76.453 0.16406-28.883-11.191-56.637-31.555-77.117-20.363-20.48-48.055-31.996-76.934-31.996zm0 154.48c-12.242 0.03125-23.992-4.8203-32.648-13.477s-13.504-20.406-13.469-32.648 4.9453-23.965 13.648-32.574c8.707-8.6094 20.48-13.391 32.723-13.293 12.242 0.10156 23.938 5.0781 32.5 13.828s13.281 20.551 13.113 32.793c-0.16406 12.066-5.0625 23.59-13.645 32.074-8.582 8.4883-20.156 13.262-32.223 13.297z"/>
 <path d="m224.98 611.94c-28.723 0.066406-56.246 11.52-76.535 31.848-20.289 20.332-31.691 47.875-31.703 76.598-0.007812 28.723 11.371 56.277 31.645 76.621 20.273 20.348 47.789 31.82 76.512 31.91 28.723 0.085938 56.309-11.219 76.707-31.438 20.398-20.219 31.949-47.703 32.113-76.426 0.13281-28.914-11.27-56.688-31.68-77.172-20.41-20.48-48.145-31.977-77.059-31.941zm0 154.48c-12.227-0.035156-23.938-4.9375-32.543-13.625-8.6055-8.6836-13.398-20.438-13.32-32.668 0.078125-12.227 5.0195-23.918 13.738-32.492 8.7148-8.5742 20.488-13.328 32.715-13.203 12.227 0.12109 23.902 5.1055 32.445 13.855 8.543 8.7461 13.25 20.535 13.086 32.762-0.16406 12.109-5.1016 23.668-13.734 32.164-8.6367 8.4922-20.273 13.238-32.387 13.207z"/>
 <path d="m224.98 699.43c-5.5234 0.035157-10.812 2.25-14.719 6.1562-3.9062 3.9102-6.1133 9.1992-6.1445 14.723-0.03125 5.5273 2.1172 10.84 5.9766 14.793 3.8633 3.9531 9.125 6.2227 14.648 6.3203 5.5234 0.097656 10.863-1.9844 14.863-5.7969s6.332-9.0469 6.4961-14.57c0.17188-5.6992-1.9844-11.223-5.9648-15.301-3.9844-4.0781-9.457-6.3594-15.156-6.3242z"/>
 <path d="m1179.9 606.81c-79.992-53.246-179.36-82.117-304.97-88.242l-169.98-119.24c-14.055-9.8594-30.168-16.398-47.121-19.121-36.859-5.2891-74.008-8.3359-111.24-9.125-0.70703-0.058594-1.418-0.058594-2.125 0h-1.625 0.003906c-58.477-1.7852-117 1.2266-174.98 9-15.867 2.457-31.008 8.3438-44.371 17.246l-147.11 97.492h-90.238c-12.289 0.03125-24.062 4.9297-32.754 13.617-8.6875 8.6875-13.586 20.465-13.617 32.754v19.121c0.007812 5.2461-1.9062 10.312-5.375 14.25l-22.496 24.996c-9.0625 9.918-13.395 23.273-11.875 36.621l10.75 84.867c1.3477 11.246 6.7734 21.605 15.25 29.117 8.4805 7.5078 19.418 11.648 30.742 11.629h41.621c-4.375-13.141-6.6133-26.898-6.6211-40.746 0-47.691 25.441-91.758 66.742-115.6 41.301-23.848 92.184-23.848 133.48 0 41.301 23.844 66.742 67.91 66.742 115.6 0.058593 14.059-2.1797 28.031-6.6211 41.371h510.32c-4.5273-13.324-6.8516-27.301-6.875-41.371 0-47.691 25.441-91.758 66.742-115.6 41.301-23.848 92.188-23.848 133.49 0 41.301 23.844 66.742 67.91 66.742 115.6 0.058594 14.059-2.1797 28.031-6.625 41.371h37.496c12.418 0 24.32-4.9688 33.055-13.797s13.574-20.781 13.441-33.199v-70.492c0.14844-15.258-7.3633-29.57-19.996-38.121zm-647.93-88.367h-203.36l-37.496-69.242 46.371-30.621c10.441-6.9258 22.246-11.531 34.621-13.5 52.965-7.207 106.42-10.215 159.86-9zm24.996 0v-121.61c32.457 0.86328 64.84 3.5742 96.992 8.125 13.223 2.082 25.797 7.1719 36.746 14.875l140.48 98.613z"/>
</svg>
