<?xml version="1.0" encoding="UTF-8"?>
<svg width="1200pt" height="1200pt" version="1.1" viewBox="0 0 1200 1200" xmlns="http://www.w3.org/2000/svg">
 <path transform="scale(12)" d="m3.5 44.5h93v22h-93z" fill="none" stroke="#000" stroke-miterlimit="10"/>
 <path transform="scale(12)" d="m3.5 67.5h3v3h-3z" fill="none" stroke="#000" stroke-miterlimit="10"/>
 <path transform="scale(12)" d="m6.5 67.5h3v3h-3z" fill="none" stroke="#000" stroke-miterlimit="10"/>
 <path transform="scale(12)" d="m9.5 67.5h3v3h-3z" fill="none" stroke="#000" stroke-miterlimit="10"/>
 <path transform="scale(12)" d="m12.5 67.5h3v3h-3z" fill="none" stroke="#000" stroke-miterlimit="10"/>
 <path transform="scale(12)" d="m15.5 67.5h3v3h-3z" fill="none" stroke="#000" stroke-miterlimit="10"/>
 <path transform="scale(12)" d="m18.5 67.5h3v3h-3z" fill="none" stroke="#000" stroke-miterlimit="10"/>
 <path transform="scale(12)" d="m21.5 67.5h3v3h-3z" fill="none" stroke="#000" stroke-miterlimit="10"/>
 <path transform="scale(12)" d="m24.5 67.5h3v3h-3z" fill="none" stroke="#000" stroke-miterlimit="10"/>
 <path transform="scale(12)" d="m27.5 67.5h3v3h-3z" fill="none" stroke="#000" stroke-miterlimit="10"/>
 <path transform="scale(12)" d="m30.5 67.5h3v3h-3z" fill="none" stroke="#000" stroke-miterlimit="10"/>
 <path transform="scale(12)" d="m33.5 67.5h2v3h-2z" fill="none" stroke="#000" stroke-miterlimit="10"/>
 <path transform="scale(12)" d="m35.5 67.5h3v3h-3z" fill="none" stroke="#000" stroke-miterlimit="10"/>
 <path transform="scale(12)" d="m38.5 67.5h3v3h-3z" fill="none" stroke="#000" stroke-miterlimit="10"/>
 <path transform="scale(12)" d="m41.5 67.5h3v3h-3z" fill="none" stroke="#000" stroke-miterlimit="10"/>
 <path transform="scale(12)" d="m44.5 67.5h3v3h-3z" fill="none" stroke="#000" stroke-miterlimit="10"/>
 <path transform="scale(12)" d="m47.5 67.5h3v3h-3z" fill="none" stroke="#000" stroke-miterlimit="10"/>
 <path transform="scale(12)" d="m50.5 67.5h3v3h-3z" fill="none" stroke="#000" stroke-miterlimit="10"/>
 <path transform="scale(12)" d="m53.5 67.5h3v3h-3z" fill="none" stroke="#000" stroke-miterlimit="10"/>
 <path transform="scale(12)" d="m56.5 67.5h3v3h-3z" fill="none" stroke="#000" stroke-miterlimit="10"/>
 <path transform="scale(12)" d="m59.5 67.5h3v3h-3z" fill="none" stroke="#000" stroke-miterlimit="10"/>
 <path transform="scale(12)" d="m67.5 67.5h3v3h-3z" fill="none" stroke="#000" stroke-miterlimit="10"/>
 <path transform="scale(12)" d="m70.5 67.5h3v3h-3z" fill="none" stroke="#000" stroke-miterlimit="10"/>
 <path transform="scale(12)" d="m73.5 67.5h3v3h-3z" fill="none" stroke="#000" stroke-miterlimit="10"/>
 <path transform="scale(12)" d="m76.5 67.5h3v3h-3z" fill="none" stroke="#000" stroke-miterlimit="10"/>
 <path transform="scale(12)" d="m79.5 67.5h3v3h-3z" fill="none" stroke="#000" stroke-miterlimit="10"/>
 <path transform="scale(12)" d="m82.5 67.5h3v3h-3z" fill="none" stroke="#000" stroke-miterlimit="10"/>
 <path transform="scale(12)" d="m85.5 67.5h3v3h-3z" fill="none" stroke="#000" stroke-miterlimit="10"/>
 <path transform="scale(12)" d="m88.5 67.5h3v3h-3z" fill="none" stroke="#000" stroke-miterlimit="10"/>
 <path transform="scale(12)" d="m91.5 67.5h3v3h-3z" fill="none" stroke="#000" stroke-miterlimit="10"/>
 <path transform="scale(12)" d="m94.5 67.5h2v3h-2z" fill="none" stroke="#000" stroke-miterlimit="10"/>
 <path transform="scale(12)" d="m59.5 67.5h2v3h-2z" stroke="#000" stroke-miterlimit="10"/>
 <path transform="scale(12)" d="m9.5 50.5h9v10h-9z" fill="none" stroke="#000" stroke-miterlimit="10"/>
 <path transform="scale(12)" d="m26.5 50.5h9v10h-9z" fill="none" stroke="#000" stroke-miterlimit="10"/>
 <path transform="scale(12)" d="m43.5 50.5h9v10h-9z" fill="none" stroke="#000" stroke-miterlimit="10"/>
 <path transform="scale(12)" d="m64.5 50.5h9v10h-9z" fill="none" stroke="#000" stroke-miterlimit="10"/>
 <path transform="scale(12)" d="m81.5 50.5h9v10h-9z" fill="none" stroke="#000" stroke-miterlimit="10"/>
 <path transform="scale(12)" d="m3.5 44.5h6v22h-6z" stroke="#000" stroke-miterlimit="10"/>
 <path transform="scale(12)" d="m7.5 60.5h88v5h-88z" stroke="#000" stroke-miterlimit="10"/>
 <path transform="scale(12)" d="m7.5 44.5h89v5h-89z" stroke="#000" stroke-miterlimit="10"/>
 <path transform="scale(12)" d="m19.5 48.5h6v15h-6z" stroke="#000" stroke-miterlimit="10"/>
 <path transform="scale(12)" d="m36.5 47.5h6v16h-6z" stroke="#000" stroke-miterlimit="10"/>
 <path transform="scale(12)" d="m53.5 47.5h9v14h-9z" stroke="#000" stroke-miterlimit="10"/>
 <path transform="scale(12)" d="m74.5 47.5h6v16h-6z" stroke="#000" stroke-miterlimit="10"/>
 <path transform="scale(12)" d="m91.5 47.5h4v16h-4z" stroke="#000" stroke-miterlimit="10"/>
 <path transform="scale(12)" d="m1.5 44.5h2v13h-2z" stroke="#000" stroke-miterlimit="10"/>
 <path transform="scale(12)" d="m1.5 65.5h2v5h-2z" stroke="#000" stroke-miterlimit="10"/>
 <path transform="scale(12)" d="m1.5 59.5h2v4h-2z" stroke="#000" stroke-miterlimit="10"/>
 <path transform="scale(12)" d="m96.5 44.5h2v13h-2z" stroke="#000" stroke-miterlimit="10"/>
 <path transform="scale(12)" d="m96.5 65.5h2v5h-2z" stroke="#000" stroke-miterlimit="10"/>
 <path transform="scale(12)" d="m96.5 59.5h2v4h-2z" stroke="#000" stroke-miterlimit="10"/>
</svg>
