<?xml version="1.0" encoding="UTF-8"?>
<svg width="1200pt" height="1200pt" version="1.1" viewBox="0 0 1200 1200" xmlns="http://www.w3.org/2000/svg">
 <path d="m128.44 691.31c0.5625 1.0312 0.9375 1.7812 0.375 0.75 4.6875 8.7188 9.2812 17.719 14.859 25.828-0.14062 0.9375-0.09375 1.9219 0.375 2.9062 14.906 28.641 13.594 28.688 16.266 30.094 1.7812 5.2031 3.4688 13.406 3.6094 20.156 0.32812 11.859 0.14062 12.656 2.5781 21.094-12.938 25.312-6.4688 56.719 15.703 75.094 52.734 43.406 209.63 29.578 246.66 34.688 16.125 2.1094 53.625 9.5625 52.734 33.516-0.28125 8.3438-6.9844 15.422-13.172 19.266-12.234 7.8281-18.844 8.9062-25.641 9.5625-6.3281 0.65625-12.844 1.3125-18.281 9.1875-6.1875 8.9062-5.4844 21.844 1.7812 30.188 4.7344 5.25 11.906 8.7188 21.938 10.641 21.047 3.7969 42.797-0.70312 57.328-4.4062 57.891-14.578 67.875-34.828 91.031-51.656 21.469-15.281 49.547-23.719 88.312-26.531 39.656-2.9062 69.938 0.98438 95.25 12.281 11.156 5.1094 21.234 14.578 18.609 24.234-4.3125 16.594-38.25 15.656-39.516 36.188-1.5938 26.625 57.984 34.266 84.656 34.266 33.047 0 68.062-7.7812 101.67-23.109 15.703-7.2188 35.297-17.719 47.578-35.297 13.078-18.703 16.969-44.953 10.406-70.266-5.1562-20.625-16.594-41.062-34.969-62.438l-3.9375 3.4219c17.859 20.719 28.922 40.453 33.891 60.328 6.1875 23.859 2.5781 48.516-9.6094 66-11.578 16.547-30.375 26.625-45.469 33.562-54.844 24.984-113.3 29.531-160.36 12.469-5.7656-2.1562-19.172-8.2969-18.562-18.562 0.98438-16.125 34.312-15.891 39.375-35.156 3.6562-13.406-9.2812-24.703-21.469-30.328-26.156-11.672-57.281-15.703-97.781-12.75-39.797 2.9062-68.672 11.625-90.984 27.516-23.766 17.25-32.578 36.562-89.25 50.812-14.062 3.6094-35.062 7.9688-55.078 4.3594-8.8594-1.6875-15.047-4.6406-18.984-8.9531-5.5781-6.4219-6.1875-16.828-1.4062-23.719 8.4844-12.234 16.078-0.51562 42.422-17.344 28.406-17.719 21.844-56.203-46.406-62.906-4.4531-28.078 11.297 71.578-21.609-136.87l0.14062-0.51562c41.203-2.3906 82.406-12.375 120.79-28.922 5.2031 19.688 11.906 37.969 20.719 51.141 30.234 44.484 97.594 52.922 125.29 54.469v58.734h27.844v-58.547h228.84v58.547h27.844v-58.547c64.219-0.32812 62.203 0.75 63.703-0.84375 0.51562-0.5625 0.75-1.2656 0.65625-2.0156-6.6562-71.344 0.046875-160.4 19.875-264.61 25.219-132.74 63.469-243.94 63.891-245.06 0.5625-1.6875-0.65625-3.4688-2.4375-3.4688-2.0156 0.09375-217.03-0.09375-389.29 78.891l-10.547-33.094c1.4531-0.60938 1.9219-1.9688 1.5-3.1875l-6.4688-18.797c-0.46875-1.3594-1.9688-2.1094-3.3281-1.5938l-10.641 3.6094-1.5469-4.5-69.375 23.578 1.5469 4.5-6.8438 2.2969c-1.4062 0.46875-2.1094 1.9688-1.6406 3.3281l6.4688 18.797c0.42188 1.2188 1.7344 2.0625 3.1875 1.6406l15.469 48.422c-69.891 45.891-101.06 90.516-113.44 113.11-2.6719 4.7344-9.1875 18.141-9.1875 21.094 0 0 0 6.2812 0.42188 16.641l-6.9375 0.89062c-1.6406 0.14062-2.9062 1.2188-3.75 2.625-14.016 0.5625-58.594 0.70312-61.688 1.7344-1.4062 0-2.8125 0.09375-4.2188 0.23438-7.125-31.312-13.734-65.344-37.172-118.03-1.0312-2.1094-2.7656-5.0156-5.7656-6.75-6.2812-7.0781-44.062-10.219-52.828-12.281 3.375-7.5938 4.5-11.672 6.1406-18.281 0.89062 0.28125 0.65625 0.375 2.1094 0.46875 6.0938 1.1719 5.4844 1.2188 6.5156 1.2188 13.828 0 19.734-30.656 7.4062-36.75 0.375-1.3125 0.70312-2.7656 0.98438-4.2656 9.4219-1.875 16.875-9.9844 17.906-20.016 0.60938-6.2344 1.5938-7.5938 0.375-9.0469-1.0312-1.2656-2.0156-0.89062-6.6562-1.4531 13.875-41.484-25.734-103.17-88.219-75.609-33.938 14.672-40.594 51.938-37.125 88.922 3.0469 33.562 14.719 64.266 15.891 69.281-21.891-0.09375-49.172 7.4531-57.094 9.1875-4.1719 0.89062-8.4844 1.8281-12.609 4.0312-0.32812 0.1875-0.79688 0.51562-0.79688 0.5625-21.375 13.547-36.609 40.406-54.188 63.797-17.484 23.391-44.953 59.812-36.047 87.516 6.5625 22.781 18.328 47.531 29.391 68.812zm34.219 54.703-14.016-27.188c0.09375-0.14062 0.14062-0.23438 0.1875-0.375 11.391-12.375 25.078-19.266 41.812-21.094l13.828 27.281c-12.984 2.4844-28.5 9.5625-41.812 21.375zm-2.0625-121.45c-1.0312-2.4844-1.0781-2.2969 0.79688-4.125 13.828-13.359 25.547-24.562 34.688-35.391 1.2188 11.203 0.89062 21.984 2.7188 33.234 5.8125 34.781 12 77.578 16.359 110.3-1.9688-0.5625-3.6562-1.2656-4.875-2.1562l-0.51562-0.46875c0.65625-3.2812-0.9375-3.3281-14.531-31.078-0.5625-1.1719-1.6406-1.8281-2.8125-2.25-9.7969-22.734-20.953-42.094-31.828-68.062zm5.1094 125.68s0.046875 0 0.046875-0.046875c12.328-10.969 25.875-17.906 40.312-20.578h0.046875c0.046875 0 0.046875 0.046875 0.09375 0.046875l0.65625 0.60938c9.4219 7.3125 23.859 2.9531 33 7.9688 6.375 3.5156 10.734 7.4531 14.344 12.281 0.9375 1.1719 2.4375 3.5156 2.0156 4.9688-0.046875 0.23438-0.09375 0.42188-0.09375 0.65625-0.32812 0.98438-1.3594 1.8281-2.7656 2.1562-7.125 2.1094-24.938-11.625-27.703-6.3281-0.5625 0.5625-1.4531 1.8281-1.0312 3.8438 0.23438 1.3125 0.46875 2.8125 1.125 4.3594 0.046875 0.09375 0.046875 0.1875 0.09375 0.28125 0.046875 0.14062 0.09375 0.23438 0.14062 0.375 0.65625 1.1719 0.5625 2.9062 5.9062 10.547 1.8281 2.625 2.7656 3.9375 2.3438 7.125-0.60938 3.75-2.0156 6.7031-4.3594 9.9844-2.4844-3.375-5.0156-6.75-7.5938-10.078-0.89062-1.125-2.5312-1.3594-3.6562-0.46875s-1.3594 2.5312-0.46875 3.6562c2.7656 3.6094 5.4844 7.2656 8.2031 10.922-3.1406 2.8125-7.0312 5.25-11.859 7.3594-2.9531-3.75-5.25-7.9219-6.8438-12.422-1.125-3.2812-6.0469-1.5-4.9219 1.7344 1.5938 4.5469 3.9844 8.7656 6.8438 12.656-7.5938 2.6719-10.969 2.9062-12.328 3.2344-1.0781-1.5-2.9531-1.2188-7.5-12.141-1.3125-3.1875-6.1406-1.1719-4.8281 2.0156 1.3594 3.3281 3.0469 7.2188 5.625 10.547-12.281-0.1875-16.734-4.7812-19.406-15.891-0.51562-2.625-1.4531-5.0156-1.6406-7.3594-0.46875-9.4688 0.1875-19.125-3.7969-32.016zm122.39-346.08c0-8.25 0.5625-15 3-23.062 1.7812 13.359 13.828 21.047 23.719 20.203l-5.4844 6.9844c-0.14062-0.14062-0.28125-0.1875-0.42188-0.28125-2.1562-1.875-4.5938-2.6719-6.3281-2.6719-0.60938 0-7.875 0.75-8.4844 1.0781-0.14062 0.046875-0.23438 0.14062-0.375 0.1875-0.32812 0.09375-0.60938 0.14062-0.9375 0.23438-0.1875-0.1875-0.375-0.32812-0.60938-0.46875zm0.51562 6.1406c-0.046875 0.09375-0.09375 0.14062-0.14062 0.23438 0-0.09375 0-0.23438-0.046875-0.32812zm25.359 26.25c0.14062 0.5625 0.42188 1.0312 0.60938 1.5938 0.23438 0.75 0.46875 1.5 0.84375 2.1562 0.09375 0.14062 0.09375 0.32812 0.1875 0.46875h-0.046875c-1.0312-0.70312-1.7812-1.6875-2.3906-2.8125 0.32812-0.46875 0.5625-0.9375 0.79688-1.4062zm-1.125-23.484c-0.09375-0.1875-0.1875-0.32812-0.28125-0.51562l1.2656-1.6406c-0.375 0.70312-0.70312 1.4062-0.98438 2.1562zm-3.7031 10.453c-0.98438-7.875-3.8906-11.156-4.4062-12.234 0.046875 0 0.046875 0 0.09375 0.046875 5.9062 4.0312 8.3438 18.938 2.9531 25.219 2.1094-4.8281 1.7812-12.328 1.3594-13.031zm0.32812 18.469c0 0.046875 0.046875 0.046875 0.09375 0.09375 0.46875 0.60938 1.0781 1.125 1.6406 1.6406 0.28125 0.28125 0.51562 0.5625 0.79688 0.79688-1.0312-0.5625-1.9219-0.98438-3.4219-2.0625 0.28125-0.14062 0.60938-0.32812 0.89062-0.46875zm-16.922-28.125c0.23438-0.375 0.46875-0.5625 0.70312-0.84375 0.84375-1.0312 1.0312-1.4531 2.8125-1.6875 0.14062 0 0.23438 0.14062 0.375 0.14062 2.2031 0.23438 4.7344 2.9531 6.3281 7.4531 3.9844 11.484-1.1719 20.391-4.125 19.781-3.2812 0-7.3594-5.8594-8.0625-13.828-0.14062-1.2656-0.09375-2.3906 0-3.5156 0.14062-3.3281 1.0312-6 1.9688-7.5zm8.9531 29.625c4.5469 4.0312 9.75 7.4062 15.797 8.4844 0.51562 0.09375 0.98438 0.28125 1.5 0.32812-3.75 6.75-10.172 18.141-15.984 22.453-0.32812-1.0312-3.0469-4.7344-9.5156-32.672 5.4375 3.1406 6.9375 1.3594 8.2031 1.4062zm26.672 19.875 0.14062 0.09375c-1.4062 1.7344-4.6875 11.156-15.328 22.266l-7.3125-6.4688c6.9844-4.9688 14.859-19.125 19.172-27.094 0.79688-0.14062 1.5938-0.42188 2.3906-0.65625 1.9688-0.5625 3.9375-1.1719 6.6562-3-1.0312 3.7031-3 9.0938-5.7188 14.859zm2.1094 1.8281h-0.046875zm68.156 276.14c1.4062 5.3438 1.6406 8.1562 0.70312 12.516-43.688 2.3906-72.328-4.875-137.76-0.375-0.75-3.8438-4.4062-8.1562-7.1719-10.969 47.062 2.7656 96.703 2.6719 144.24-1.1719zm-20.25 18.141c-32.25 3.75-72.797 4.7812-118.55 0.9375 0.46875-0.70312 0.65625-0.9375 0.98438-1.6875 53.391-3.75 81.188 0.46875 117.56 0.75zm-191.06 104.86c-19.922-15.047-27.188-42-18.047-65.062 4.875 9.8438 14.578 11.953 25.453 11.156-5.2969 21.797-5.2031 34.547-7.4062 53.906zm232.26 31.312c-28.266-2.1562-177.1 6.6094-227.34-27.891 2.4844-22.078 2.5781-36.844 7.9219-57.891 15.984-2.8125 35.344-12 39-28.312 2.4375-8.5312-1.875-11.062-6.2344-18.703 62.203 7.6875 118.36 6.4688 165.56-0.75zm-14.859-142.22c0.79687-4.7812 0.23437-8.4375-1.125-13.594 0.65625-1.9219 0.9375 3.6094-7.2188-75.891 6.5156 1.0312 12.844 0.89062 17.719 1.2656 38.672 3.0469 60.328-0.28125 90.328-6.6562 2.3906 1.4531 3.3281 0.60938 7.1719 0.32812 2.2969 20.344 5.8594 43.781 11.297 65.859-37.547 16.312-77.859 26.156-118.17 28.688zm112.03-95.203c25.922-3.6094 26.906-2.3906 29.391-4.6406 0.046876-0.046875 0.14063-0.046875 0.1875-0.09375 7.8281 0.84375 9.4219 2.0625 15.703 5.2031-1.5469 8.6719-1.875 14.156-1.7812 13.078-0.09375 1.3125 0.79687 2.4844 2.1094 2.7656l5.5781 1.125-1.7344 11.109 7.9688 1.6406c-3.375 8.7188-12.141 16.875-26.719 24.703-6.4688 3.4219-13.031 6.5625-19.688 9.5625-5.2969-21.516-8.7656-44.531-11.016-64.453zm160.82-163.92 3.1406 7.3594 6.2812-2.7188 6.4688 23.297-4.0781-1.2188-60.328-12c-1.3594-0.28125-2.7656 0.60938-3.0469 2.0156l-0.60938 3.0469-13.406-2.7188 0.51562-2.5781-9.75-1.9219c10.312-11.391 22.312-22.641 35.812-33.469 0.32812 1.0781 5.9062 18.656 6.2812 19.734 2.4844 8.1562 24.938 2.8125 32.719 1.1719zm32.25-10.547c16.922-7.1719 24.656-13.406 23.016-18.375v-0.09375c-0.1875-0.60938-0.46875-1.1719-0.84375-1.6406l-12.984-40.875c95.25-48.703 216.19-70.031 322.18-75.375h1.3125c10.266 0.1875 17.625 10.266 14.578 20.297-10.641 33.891-30.609 102.05-45.797 179.95l-252.66-0.046875 0.65625-3.2344c0.28125-1.3125-0.51562-2.625-1.8281-3l-9.8906-2.9531c0.28125-2.2031 1.0781-3.375 0.14062-4.7344-1.0312-1.5938-1.5-0.79688-18.469-4.4531-1.3594-0.28125-2.7656 0.60938-3.0469 2.0156l-0.14062 0.75-11.391-3.4219c-6.9375-24.891-10.641-38.344-10.312-37.125l7.4062-3.2344zm24.984 91.875-11.672-2.2969c1.3594-6.8438 7.8281-39.562 7.6406-38.531l11.672 2.3438c-5.0156 25.359-7.8281 39.562-7.6406 38.484zm11.719-32.109 7.1719 2.1562c-1.5938 8.8594-2.5781 9.9844-1.5469 11.531 0.98438 1.5 2.4844 1.0781 7.4062 2.2969l-0.65625 4.4062c-5.25-0.84375-6.375-1.8281-7.9219-0.79688s-1.0312 2.4375-2.8594 10.406l-7.4062-0.75c0.1875-1.0781 6.1875-31.172 5.8125-29.25zm-21.562-6.375-6.6094 33.328-35.484-3.6562 4.125-20.672c0.28125-1.4531-0.65625-2.8125-2.0625-3.0938l-3.4688-0.70312 3.375-16.922 3.1875 0.65625zm-43.922 10.453h-0.5625v-0.09375zm-15.797 77.016c-0.28125 0.28125-0.46875 0.70312-0.60938 1.1719-0.79688 1.5-2.3438 2.6719-4.1719 3.1875-2.3438 0.5625-5.1562 0.42188-8.2969-0.32812-10.922-2.5781-28.875-14.391-33.938-7.5l0.23438-1.0781 10.547-7.6875c23.25 4.3594 22.828 5.1562 24.422 4.0781 0.5625-0.375 0.98438-0.98438 1.0781-1.6875l0.09375-0.51562c2.3906 0.70312 5.2969 1.6875 7.3125 3.2344 2.0156 1.5938 3.9375 4.5 3.2812 7.125zm-43.078 23.719c2.1562 0.60938 2.6719 4.125 1.3125 6-0.09375 0.14062-0.1875 0.32812-0.28125 0.51562-1.5469 1.6875-4.1719 2.8594-7.9219 2.4844-1.6875-0.14062 0.14062 0.14062-4.0781-0.70312l6.3281-31.594c0.046875 0.14062 0.14062 0.23438 0.1875 0.32812 1.7344 6.3281 8.7188 3.6094 18.328 12.094 1.4531 1.125 2.3438 2.5781 2.1562 3.5156-0.046875 0.32812-0.046875 0.70312 0 1.0312-1.9688 2.7656-11.25 1.9219-14.859 1.2656-3-0.65625-4.4062 4.125-1.1719 5.0625zm-20.391 28.734c-3.4219-0.65625-38.109-7.5469-36.141-7.1719 2.2031-19.641 8.2969-40.828 18.047-58.594 5.1562-3.4219 16.734-8.4375 24.656-8.4375 6.8906 0 12.797-1.3125 17.672-3.2344 0.28125-0.09375 0.51562-0.14062 0.79688-0.28125 2.0625 1.0781 23.578 12.375 22.172 11.625-20.484-3.7969-20.391-4.7344-22.031-3.5156-12.188 9.1406-12.984 8.8125-13.312 10.594-0.28125 1.0781-12.656 62.953-11.859 59.016zm48.797-71.062-18.891-9.9375c0.09375-0.09375 0.89062-1.1719 0.98438-1.2656 1.9688-2.625 1.9219-4.0312 2.1094-5.5781l0.46875-0.75 1.8281-2.9531c7.125 1.2656 13.781 2.8594 20.672 4.875-0.14062 2.5781-1.4531 5.1094 0.42188 7.9219l3.7031 5.6719c-3.4219 1.2656-6.9375 1.9688-11.297 2.0156zm8.25-23.484-0.375 2.7656c-7.3125-2.1094-14.484-3.75-18.422-4.4531l0.9375-1.5469 13.406-1.9219c1.0781-0.14062 1.9688-0.98438 2.2031-2.0625l4.4062-22.406h3.75zm3.1875-34.922 0.70312-3.6562 3.6094 0.70312-0.5625 2.9531zm-25.734-14.203-8.9531-1.7812 3.2344-16.922 40.125 7.9688-3.375 16.922c-2.1562-0.46875-32.859-6.5625-31.031-6.1875zm-26.625-10.172 0.46875-2.3906 13.453 2.6719c-1.6406 9.75-2.6719 10.125-1.1719 11.766 0.1875 0.1875 0.28125 0.42188 0.51562 0.5625l-2.3438 11.766h-1.4062c-15.188 0-25.266-13.453-23.203-27.141zm-5.9531 27.656 18.516 3.6562c1.4531 0.28125 2.8125-0.70312 3.0938-2.1094l3-15.281 29.016 5.7188-1.3594 6.8438c-0.046875 0.28125 0.14062 0.46875 0.1875 0.75l-4.3125 21.984c-11.812 1.9688-13.5 1.2188-14.625 3.0469l-3.6562 5.8594-0.9375 1.5469c-5.4375-6.7969-14.859-7.2188-23.719-6.7031-0.375 0-0.79688-0.046875-1.1719 0 0.09375-0.46875 0-0.84375 0.046875-1.2656 0.42188-5.0156-1.5938-8.9062-6.5625-11.203zm0.79688 30.844c7.5469-1.0312 14.906-0.28125 16.406 0.14062 0.046875 0 0.09375 0 0.14062 0.046875 4.3125 1.0781 9.1406 4.5938 8.3438 8.25-0.9375 3.2812-5.5312 4.9219-8.7188 5.8125-8.2031 2.2969-10.688 1.5-15.094 1.7812-8.6719 0.84375-25.734 7.3594-32.391 15.938-0.89062 1.125-0.65625 2.7656 0.46875 3.6562 0.32812 0.28125 0.75 0.32812 1.125 0.375-5.7188 12.375-9.4219 24.609-11.766 35.672-6.4688-3.375-9.6562-4.3125-15.516-5.0156-0.65625-2.4844-10.406-23.625-6.9375-49.312 9.6562-0.046875 15.656-2.1562 25.594-6 1.9219-0.75 4.2656-1.7344 8.0156-3.5156 18.469-8.7188 17.484-6.2812 30.328-7.8281zm492.37-256.87c-46.594 139.18-96.375 354.42-83.109 505.55h-333c-0.046875 0-3.6094 0.09375-9.6094-0.1875h-0.70312c-26.766-1.5-92.203-9.6094-121.13-52.172-8.625-12.844-15.188-30.797-20.25-50.25 5.25-2.3438 10.406-4.8281 15.516-7.4531 5.7656 15.281 20.391 30.938 43.734 46.547 24.281 16.219 53.109 24.938 83.391 25.266l327.94 3.1406 0.046875-5.2031-327.94-3.1406c-29.25-0.28125-57.094-8.7188-80.531-24.375-22.641-15.141-36.75-30.141-41.953-44.531 0.1875-0.09375 0.375-0.1875 0.60938-0.28125 16.172-8.6719 25.828-18 29.438-28.266l6.4688 1.3125 3.8438-10.828 13.688 2.7188c1.4062 0.28125 2.8125-0.79688 3.0469-2.0625l3.7969-18.891c4.125 0.84375 8.7188 1.8281 13.875-1.0781 4.6875-2.6719 6.2812-7.3125 5.1094-11.578 5.4375 0.23438 12.328-0.60938 14.203-5.7656 0.14062-0.375 0.23438-1.5 0.09375-2.2031 0.1875-2.7188-1.3594-5.5781-4.0781-7.6875-7.2656-6.4219-13.312-7.2656-16.969-9.1406 0.046875 0 0.1875-0.046875 0.89062 0 12.938 1.3594 25.266 12.844 38.578 9.7031 3.5156-1.0312 6.3281-3.3281 7.6875-6.3281 0.046875-0.046875 0.046875-0.09375 0.09375-0.1875 0.375-0.5625 0.5625-1.0781 0.60938-1.3594h-0.046875s0.046875-0.046875 0.046875-0.09375 0.046875-0.14062 0.046875-0.1875c1.3594-5.2031-1.9219-9.9844-5.1094-12.516-2.25-1.6875-4.125-2.3906-5.9062-3.1406 2.25-0.46875 3.6562-0.9375 5.3906-1.6875l0.28125 0.46875c1.5 2.2969 4.3125 3.3281 6.9375 2.5781 4.3125-1.2656 5.8594-6.5156 3-9.9375l-1.5469-1.7812c-0.14062-0.1875-0.1875-0.46875-0.32812-0.65625 0.046875-0.23438 0.1875-0.51562 0.1875-0.75 0-1.7812-0.75-3.4219-1.8281-4.9688 0-0.65625-0.14062-1.2656 0-1.875l1.5-6.2344 6.4688-32.484h0.9375c-2.8594 15.797-3.8906 16.172-2.6719 17.812 1.3125 1.7344 0.98438 0.65625 39.984 4.9688 0.32812 2.9531 0.42188 1.7344 18.703 5.6719 1.4062 0.28125 2.7656-0.60938 3.0469-2.0625l0.28125-1.3125c1.0781 0.09375-3.8906-0.375 10.547 1.0312 1.2188 0 2.2969-0.89062 2.5781-2.1094l1.6875-8.4844 4.7812 0.98438 30.469 43.688s121.92-45.938 122.06-47.016c-0.23438-1.0312-137.02-7.4531-138.05-7.5-0.28125-0.89062-0.84375-1.6406-1.7812-1.8281l-14.531-2.9062 0.1875-0.89062h255.84c1.2656 0 2.3438-0.89062 2.5781-2.1094 15.188-78.516 35.344-147.42 46.031-181.5 4.0312-13.312-5.6719-26.812-19.5-27.047h-1.5c-108.05 5.3906-228.47 27.141-323.68 75.609l-4.5469-14.297c159-73.172 355.08-78.328 384.05-78.703zm-487.22 50.578 81.984-27.844 4.7344 13.781-81.984 27.891zm8.8125 17.953 77.297-26.297c34.688 108.75 31.406 99.094 31.969 99.75-0.23438 0.51562-0.98438 1.4531-2.6719 2.7656-9.6562 7.6875-35.062 16.828-49.125 19.734-17.391 4.0781-25.172 3.1875-26.109 2.2969-0.5625-1.7812-7.875-24.891-7.4062-23.391-0.9375-2.9062-8.2969-26.016-7.8281-24.516-12.188-38.062-16.5-51.562-16.125-50.344zm-98.344 165.71c12.047-22.031 42.375-65.484 110.48-110.48l6.2344 19.547c-27.422 21.656-40.172 37.922-41.156 38.953-0.23438 0.32813-0.32812 0.60938-0.5625 0.9375v0.046876c-7.8281 12.281-6.2812 27.375 5.1094 37.547h-0.09375c-1.5938 1.0781-0.84375 1.7344-4.5469 19.078-0.98438 4.9688 9 1.3125 6.5625 12-2.8125 0.42187-9.1406-0.84375-21.047 3.9844-10.219 4.125-26.719 13.641-40.688 13.078-0.89062-2.1562-3-3.3281-5.2031-3.0938l-23.25 2.9531c-0.32812-8.5781-0.375-14.203-0.42188-15.656 0.46875-1.4531 2.7188-8.3906 8.5781-18.891zm-19.734 41.297 9.2812-1.1719c4.2188-0.46875 27.375-3.0469 25.875-2.8594-2.2969 14.531-0.79688 33.891 6.7969 53.484-1.0781 0.14062-36.375 4.5-35.297 4.3594-8.8594-16.781-11.156-34.688-6.6562-53.812zm-163.5-131.76c37.688 4.9219 45.234 8.25 46.406 9.8438 0.09375 0.14062 0.1875 0.28125 0.32812 0.375 0.23438 0.23438 0.46875 0.42188 0.79688 0.60938 1.4531 0.75 2.7188 2.2031 3.8906 4.5938 21.047 47.391 28.547 80.062 35.344 110.34 3.3281 13.922 0.75 10.453 11.391 10.453 0.28125 0 0.51562-0.046875 0.79688-0.14062 18.891-1.3125 39-0.84375 58.266-1.5-3.4219 17.625-1.1719 34.734 6.7031 50.859-44.484 9.375-60.844 6.9844-91.453 5.7656-4.3594-0.1875-9.1406-0.46875-13.5-1.3125-2.9062-33.844-9.0938-66.75-10.922-99.609-0.1875-3.4219-5.3906-3.1875-5.2031 0.28125 2.2031 39.281 10.453 78.234 12.094 117.28 0.046875 0.75 0.375 1.3594 0.89062 1.8281 4.5 43.922 4.4062 42.938 5.9531 57.891-33.984 2.7656-61.828 3.2344-91.453 2.9062 1.7812-88.266 5.0625-144.74-0.09375-240.94-0.1875-3.7031-0.46875-7.7344-1.0781-11.812 5.2031 4.3594 5.6719 5.6719 7.4062 5.6719h0.046875c0.65625 0 1.3125-0.23438 1.7812-0.75 7.0781-6.9375 12.844-15 17.062-23.578 1.7812 0.375 4.0312 0.84375 4.5469 0.9375zm3.2344-33.938c-0.046875 0.23438-0.28125 0.65625-0.28125 0.89062-1.0312 3.2344-4.2188 5.6719-6.7031 6.1406-1.3125 0.14062 0.70312 0.046875-6.0469 0.046875v0.046875h-0.09375c-0.1875-0.046875-0.375 0-0.60938 0l-0.046875-0.09375c-3.7969-0.32812-6.75-3.1406-7.2188-6.8906l-1.875-15.375c-0.23438-2.3438 0.51562-4.9688 1.9688-6.8906 16.406-20.25 12.562-16.172 14.391-17.672 1.5938 1.2656-0.60938-1.875 10.031 17.719 2.0156 4.0781 0.65625 5.6719-3.5156 22.078zm5.7188 3.8906s-0.375-0.79688-0.65625-1.5469c0-0.1875-0.046875-0.70312-0.046875-0.79688 0.42188-1.3125-1.4062 5.5312 4.2188-16.219 0.51562-1.875 0.51562-4.4062 0.23438-5.9531 4.9219 7.1719 1.6875 20.391-3.75 24.516zm5.6719-30.469-1.9688-0.28125v-0.046875c-0.79688-0.42188-1.5469-0.32812-1.8281-0.28125-0.79688-0.1875-0.42188-0.046875-0.89062-0.09375 0.28125-0.70312 0.46875-0.46875 0.046875-2.4844 3.8906 1.125 4.2188 0.75 5.25 0.84375-0.1875 0.79688-0.42188 1.5938-0.60938 2.3438zm19.359-28.125-0.60938 4.4531c-1.0781 9.9844-9.8906 16.688-18.281 16.031h-0.23438c-0.1875 0-0.32812 0-0.51562 0.046875-0.14062 0-0.23438-0.046875-0.23438-0.046875-8.4375-0.89062-15.516-8.3906-15.047-19.031 0-0.42188-0.09375-0.84375-0.046875-1.2656 0.32812-3.375-4.8281-4.0312-5.2031-0.5625-1.0312 9.6562-9.4688 17.016-18.328 16.453-0.046875-0.046875-0.09375 0.046875-0.14062 0.046875-0.28125-0.14062-0.5625-0.23438-0.84375-0.23438-9.4688-1.1719-16.219-10.266-15.047-20.25l0.51562-4.3594c22.031 2.8125 69.516 8.25 68.484 8.1094 1.125 0.14062 0.98438 0.046875 5.5312 0.60938zm-31.453-15.281c4.3125 1.7344 8.9531 3.0938 13.641 3.2812 0.1875 0.32812 0.42188 0.70312 0.5625 1.0781 0.46875 1.0781 0.65625 2.4844 0.9375 3.7969-20.438-2.2969-35.578-4.0312-56.156-6.6562 0.79688-1.0312 1.0312-1.5469 3.6094-3.9844h0.046875c17.016 1.5938 39.234 12.516 40.922 7.5 0.28125-0.89062-0.89062-3.6562-3.5625-5.0156zm-184.74 151.78c24.094-35.297 36.656-40.125 38.203-41.672 4.0781-2.1562 9.75-2.9531 14.25-4.0781 14.156-3.7031 41.016-9.3281 55.688-8.1562 1.8281 0.14063 3.0469-1.5 2.7656-3.0469-1.6406-9.3281-27.938-74.953-12.609-121.74 5.3438-15.844 15.984-27.938 30.094-34.031 59.297-26.156 94.031 33.469 81 70.219-1.0312-0.14062-4.8281-0.60938-3.7969-0.46875-0.046874-0.28125-0.14062-0.46875-0.1875-0.70312-0.42187-2.0625-0.9375-4.0312-1.6406-5.6719-5.1562-13.312-29.672-26.016-50.531-15.562-27.562 13.781-27.422 51.281-21.703 81.562 2.3906 12.422 7.5938 33.562 12.656 45.188-0.375 2.2031 1.875 0.51562 2.9062 20.062 5.2031 97.312 1.7344 158.9 0.09375 240.61-7.4531-0.14063-20.297 0.14062-54.234-2.0625-9.375-6.7031-14.203-5.9531-26.859-7.1719-15.797-118.45-14.672-83.109-19.828-150.32 0-3.7969-3.375-4.1719-4.7812-2.4375-9.9375 12.656-22.125 24.234-38.531 40.078-3.3281 3.2812-3.375 5.5312-1.6875 9.6562 10.406 24.844 20.672 43.031 31.125 66-2.1562 0.32812-4.125 0.9375-6.1875 1.4531-10.688 2.5781-22.125 6.9844-33.938 19.078-9.2344-14.156-33.469-60.328-42.984-92.297-9.9375-30.984 31.031-75.656 50.719-104.48z"/>
 <path d="m526.74 634.78c0.5625-0.09375 0.89062-0.65625 0.65625-1.1719-5.625-14.156-0.46875-19.781-3.2812-19.406-12.234 1.7344-12.891 1.125-13.172 2.25-1.6406 6.75-0.89062 13.219 2.4375 19.406 0.5625 1.0781 1.7344 0.14062 13.359-1.0781z"/>
 <path d="m1004.6 585.98h-65.438c-4.3125 0-7.7812 3.4688-7.7812 7.7812s3.4688 7.7812 7.7812 7.7812h65.438c4.3125 0 7.7812-3.4688 7.7812-7.7812 0-4.2656-3.4688-7.7812-7.7812-7.7812z"/>
 <path d="m181.26 712.13c-0.14062-0.28125-0.42188-0.42188-0.75-0.42188-5.5781 0.60938-10.312 2.9531-14.109 7.1719-0.1875 0.23438-0.23438 0.5625-0.09375 0.84375l4.5938 9.0469c0.1875 0.42188 0.75 0.51562 1.0781 0.1875 9.3281-8.25 14.953-5.7188 13.875-7.8281z"/>
 <path d="m722.16 233.44c1.3594 0-1.0312 0.9375 43.078-26.016 2.9531-1.7812 0.23438-6.2344-2.7188-4.4531l-41.719 25.594c-2.25 1.4062-1.2656 4.875 1.3594 4.875z"/>
 <path d="m764.11 222.1-22.875 20.625c-1.7812 1.5938-0.60938 4.5469 1.7344 4.5469 1.9219 0 0.9375-0.28125 24.609-21.281 2.625-2.3438-0.9375-6.1875-3.4688-3.8906z"/>
 <path d="m446.26 201.84c1.1719 1.6406 3.7031 1.4062 4.5469-0.46875l15.844-36.328c0.75-1.7344-0.5625-3.75-2.5781-3.6562l-39.516 2.5781c-2.0156 0.14062-3.1406 2.4375-1.9688 4.0781zm13.875-34.922-12.281 28.125-18.375-26.156z"/>
 <path d="m321.94 538.6v18.984c0 13.453 10.969 24.422 24.422 24.422s24.422-10.969 24.422-24.422v-18.984c0-1.4531-1.1719-2.625-2.625-2.625h-43.641c-1.4062 0-2.5781 1.1719-2.5781 2.625zm5.2031 2.625h38.438v16.406c0 10.594-8.625 19.219-19.219 19.219s-19.219-8.625-19.219-19.219z"/>
 <path d="m267.19 582.05c13.453 0 24.422-10.969 24.422-24.422v-18.984c0-1.4531-1.1719-2.625-2.625-2.625h-43.641c-1.4531 0-2.625 1.1719-2.625 2.625v18.984c0.046875 13.453 11.016 24.422 24.469 24.422zm-19.219-40.828h38.438v16.406c0 10.594-8.625 19.219-19.219 19.219s-19.219-8.625-19.219-19.219z"/>
 <path d="m646.74 469.03c0.32812 1.0312 5.8125 15.844 5.2031 16.266 0 0.14062 0 0.23438 0.046875 0.375 2.2031 6.9375 45.609-3.7969 63.938-15.516 3.8438-2.4375 7.2656-5.0156 5.25-10.031-3.2812-8.1094-4.125-6.6562-7.9219-7.3125-6.9375-1.1719-11.531-8.5312-18.469-9.75-6.2812-1.0781-12.281 3.2812-18.656 3.5156-10.453 0.42188-18.656-9.8906-29.062-10.734-2.3438-0.1875-4.8281 0.1875-6.7031 1.5469-4.8281 3.5625-0.375 10.5 0.98438 14.906 1.875 5.5781 3.6094 11.156 5.3906 16.734z"/>
 <path d="m343.55 381.98-0.23438 1.5c-0.65625 5.2969 2.7656 10.219 7.7812 11.109 4.2188 1.4062 10.781-2.2031 11.625-8.8594l0.14062-1.5c-3.0469-0.32812-20.391-2.3438-19.312-2.25z"/>
 <path d="m303.79 377.26-0.23438 1.5469c-0.5625 5.2031 2.4844 10.547 8.6719 11.578 5.4844 0.5625 10.5-3.5625 11.156-9.2344l0.14062-1.5469c-3.9844-0.46875-20.812-2.4844-19.734-2.3438z"/>
</svg>
