<?xml version="1.0" encoding="UTF-8"?>
<svg width="1200pt" height="1200pt" version="1.1" viewBox="0 0 1200 1200" xmlns="http://www.w3.org/2000/svg">
 <path d="m1184.4 1014-400.8-841.2-3.6016-8.4023-8.3984-4.8008c-3.6016-2.3984-14.398-7.1992-32.398-7.1992-46.801 0-135.6 30-294 175.2l-2.3984 2.3984c-1.2031 2.4023-199.2 220.8-350.41 210l-63.602-4.8008 302.4 390c2.3984 2.3984 26.398 21.602 72 21.602 74.398 0 159.6-50.398 254.4-151.2 97.199-103.2 178.8-124.8 230.4-124.8 44.398 0 72 16.801 72 16.801l8.3984 6 164.4 345.6zm-478.8-571.2-57.602-97.199-128.4 75.602-32.398-54c45.602-42 85.199-72 117.6-94.801l48 81.602 118.8-69.602 43.199 94.801zm-328.8 339.6-52.801-88.801 128.4-75.602 52.801 88.801zm13.199-274.8-128.4 75.602-15.602-26.398c45.602-22.801 87.602-52.801 124.8-82.801zm-127.2 87.598 55.199 93.602-67.199 39.602-67.199-86.398zm183.6 6-52.801-88.801 128.4-75.602 52.801 88.801zm-76.797 282-40.801-52.801 52.801-31.199 51.602 87.602c-12 3.6016-21.602 3.6016-30 3.6016-19.203-0.003906-30.004-6.0039-33.602-7.2031zm246-126c-18 19.199-34.801 34.801-50.398 49.199l-56.398-94.801 128.4-75.602 38.398 64.801c-19.203 15.602-39.602 34.805-60 56.402zm272.4-144c-21.602 0-46.801 3.6016-76.801 12l-48-81.602-128.4 75.602-52.801-88.801 128.4-75.602 57.602 97.203 98.398-57.602 55.199 122.4c-9.5977-2.3984-21.598-3.5977-33.598-3.5977z"/>
</svg>
