<?xml version="1.0" encoding="UTF-8"?>
<svg width="1200pt" height="1200pt" version="1.1" viewBox="0 0 1200 1200" xmlns="http://www.w3.org/2000/svg">
 <path d="m367.4 931.4v66.984c0 22.219-18 40.219-40.219 40.219h-78.281c-22.219 0-40.219-18-40.219-40.219v-171.42c0-22.219 18-40.219 40.219-40.219h78.281c22.219 0 40.219 18 40.219 40.219v66.984h57.516v-580.64h-57.516v66.984c0 22.219-18 40.219-40.219 40.219h-78.281c-22.219 0-40.219-18-40.219-40.219v-171.42c0-22.219 18-40.219 40.219-40.219h78.281c22.219 0 40.219 18 40.219 40.219v66.984h57.516v-142.45h37.5v142.45h275.16v-142.45h37.5v142.45h57.516v-66.984c0-22.219 18-40.219 40.219-40.219h78.281c22.219 0 40.219 18 40.219 40.219v171.42c0 22.219-18 40.219-40.219 40.219h-78.281c-22.219 0-40.219-18-40.219-40.219v-66.984h-57.516v580.64h57.516v-66.984c0-22.219 18-40.219 40.219-40.219h78.281c22.219 0 40.219 18 40.219 40.219v171.42c0 22.219-18 40.219-40.219 40.219h-78.281c-22.219 0-40.219-18-40.219-40.219v-66.984h-57.516v129h-37.5v-129h-275.16v129h-37.5v-129zm272.76-409.31c-12.469-4.7812-26.016-7.3594-40.219-7.3594-14.156 0-27.703 2.625-40.219 7.3594l-97.359-160.5v532.31h118.83v-154.82c6.0938 1.0312 12.375 1.5469 18.75 1.5469s12.656-0.51562 18.75-1.5469v154.82h118.83v-532.31zm-21.469-208.82v171.89l104.3-171.89zm-141.79 0 104.3 171.89v-171.89z" fill-rule="evenodd"/>
 <path d="m675.47 627.66c0 41.672-33.797 75.469-75.469 75.469s-75.469-33.797-75.469-75.469 33.797-75.469 75.469-75.469 75.469 33.797 75.469 75.469z" fill-rule="evenodd"/>
 <path d="m346.08 1175c-4.6875 0-9.2344-1.3125-13.219-3.7969-8.1094-5.0625-22.688-14.109-33-20.531-7.3125-4.5469-11.766-12.609-11.766-21.234v-19.078c0-6.8906 5.5781-12.516 12.516-12.516h598.87c6.8906 0 12.516 5.5781 12.516 12.516v19.078c0 8.625-4.4531 16.641-11.766 21.234-10.312 6.4219-24.891 15.469-33 20.531-3.9844 2.4844-8.5312 3.7969-13.219 3.7969z" fill-rule="evenodd"/>
 <path d="m911.95 70.781c0 13.781-11.203 24.984-24.984 24.984h-573.89c-13.828 0-24.984-11.203-24.984-24.984v-20.766c0-13.828 11.203-24.984 24.984-24.984h573.89c13.828 0 24.984 11.203 24.984 24.984z" fill-rule="evenodd"/>
</svg>
