<?xml version="1.0" encoding="UTF-8"?>
<svg width="1200pt" height="1200pt" version="1.1" viewBox="0 0 1200 1200" xmlns="http://www.w3.org/2000/svg">
 <path d="m420.78 704.13c9.918-128.93-170.01-131.76-170.01-5.668-68.004 2.832-92.09-39.668-80.754-119.01l8.5 1.418v-45.336c8.5-25.5 31.168-49.586 63.754-72.254l-18.418-14.168c126.09-17 255.02-17 383.94-8.5 60.922 2.832 127.51 39.668 195.51 89.258 89.258 4.25 205.43-2.832 225.27 77.922 9.918 63.754 0 92.09-59.504 100.59 12.75-120.43-167.18-148.76-167.18-1.418l-381.11-2.832zm-198.35-106.26c5.668 0 9.918 5.668 9.918 11.336 0 5.668-4.25 9.918-9.918 9.918-5.668 0-11.336-4.25-11.336-9.918 0-5.668 5.668-11.336 11.336-11.336zm664.46 18.418c41.086 0 73.672 34.004 73.672 73.672 0 41.086-32.586 73.672-73.672 73.672-39.668 0-73.672-32.586-73.672-73.672 0-39.668 34.004-73.672 73.672-73.672zm0 25.5c26.918 0 46.754 21.25 46.754 48.172 0 25.5-19.836 46.754-46.754 46.754-25.5 0-46.754-21.25-46.754-46.754 0-26.918 21.25-48.172 46.754-48.172zm-549.7-25.5c41.086 0 73.672 34.004 73.672 73.672 0 41.086-32.586 73.672-73.672 73.672s-73.672-32.586-73.672-73.672c0-39.668 32.586-73.672 73.672-73.672zm0 25.5c25.5 0 46.754 21.25 46.754 48.172 0 25.5-21.25 46.754-46.754 46.754-25.5 0-46.754-21.25-46.754-46.754 0-26.918 21.25-48.172 46.754-48.172zm221.02-182.76 21.25 70.84 111.93 5.668c-11.336-25.5 2.832-34.004 39.668-29.754-59.504-41.086-116.18-51.004-172.84-46.754zm-147.34 0h120.43l7.082 70.84h-127.51c-35.418-5.668-32.586-56.672 0-70.84z" fill-rule="evenodd"/>
</svg>
