<?xml version="1.0" encoding="UTF-8"?>
<svg width="1200pt" height="1200pt" version="1.1" viewBox="0 0 1200 1200" xmlns="http://www.w3.org/2000/svg">
 <path d="m1200 526.74h-20.004v28.273h20.004v47.148h-20.004v28.273h20.004v89.566h-75.098v-35.305c-0.3125-2.0508-1.5703-3.4062-3.6367-4.1523-0.42188-0.046875-0.83984-0.097657-1.2734-0.14453h-618.91c-0.68359-17.867-7.1523-26.137-15.012-26.137-7.8594 0-14.316 8.2695-15 26.137h-391.07c-2.9648 0.33594-4.5352 1.8125-4.9062 4.2969v35.305h-75.098v-89.113h20.004v-28.285h-20.004v-47.594h20.004v-28.273h-20.004v-46.738h1200zm-728.99 188.96h-386.11v-26.711h386.11zm644.09 0h-613.96v-26.711h613.96zm47.09-47.941c11.543 0 20.914 9.4688 20.914 21.121 0 11.664-9.3711 21.133-20.914 21.133-11.543 0-20.914-9.4688-20.914-21.133 0-11.652 9.3711-21.121 20.914-21.121zm-1128 0c11.543 0 20.93 8.832 20.93 19.727 0 10.883-9.3828 19.715-20.93 19.715-11.543 0-20.914-8.832-20.914-19.715 0-10.895 9.3711-19.727 20.914-19.727zm973.34-139.52c2.375 0.28906 4.1055 1.8008 4.4297 3.875 1.6328 30.816 0.023438 61.691 0.023438 92.531-0.12109 2.2578-1.957 3.9844-4.4531 4.2852-26.82 1.0938-53.711 0.023437-80.555 0.023437-2.5195-0.10938-4.5234-1.6445-4.8828-3.8984-1.6328-30.816-0.023437-61.691-0.023437-92.531 0.12109-2.2578 1.957-3.9844 4.4531-4.2852 26.977-1.0938 54.035-1.0938 81.012 0zm-268.36 0c2.3867 0.28906 4.1055 1.8008 4.4414 3.875 1.6211 30.816 0.011719 61.691 0.011719 92.531-0.10938 2.2578-1.957 3.9844-4.4531 4.2852-26.82 1.0938-53.699 0.023437-80.555 0.023437-2.5195-0.10938-4.5234-1.6445-4.8828-3.8984-1.6211-30.816-0.023437-61.691-0.023437-92.531 0.12109-2.2188 1.8828-3.9727 4.4531-4.2852 26.977-1.0938 54.047-1.0938 81.012 0zm-200.98 0c2.375 0.28906 4.0938 1.8008 4.4297 3.875 1.6211 30.816 0.023438 61.691 0.023438 92.531-0.12109 2.2578-1.957 3.9844-4.4531 4.2852-26.832 1.0938-53.711 0.023437-80.555 0.023437-2.5195-0.10938-4.5234-1.6445-4.8828-3.8984-1.6328-30.816-0.023438-61.691-0.023438-92.531 0.12109-2.2578 1.957-3.9844 4.4531-4.2852 26.977-1.0938 54.035-1.0938 81.012 0zm335.16 0c2.375 0.28906 4.1055 1.8008 4.4297 3.875 1.6328 30.816 0.023437 61.691 0.023437 92.531-0.12109 2.2188-1.8711 3.9727-4.4531 4.2852-26.82 1.0938-53.699 0.023437-80.555 0.023437-2.5664-0.10938-4.5352-1.7148-4.8828-3.8984-1.6328-30.816-0.023438-61.691-0.023438-92.531 0.12109-2.2578 1.957-3.9844 4.4531-4.2852 26.977-1.0938 54.035-1.0938 81.012 0zm-603.52 0c2.3867 0.28906 4.1055 1.8008 4.4414 3.875 1.6211 30.816 0.011719 61.691 0.011719 92.531-0.10938 2.2188-1.8711 3.9727-4.4531 4.2852-26.82 1.0938-53.699 0.023437-80.555 0.023437-2.5195-0.10938-4.5234-1.6445-4.8828-3.8984-1.6211-30.816-0.011719-61.691-0.011719-92.531 0.10938-2.2188 1.8711-3.9727 4.4531-4.2852 26.965-1.0938 54.035-1.0938 81 0zm-134.17 0c2.375 0.28906 4.0938 1.8008 4.4297 3.875 1.6211 30.816 0.023437 61.691 0.023437 92.531-0.12109 2.2188-1.8711 3.9727-4.4531 4.2852-26.82 1.0938-53.711 0.023437-80.555 0.023437-2.5195-0.10938-4.5234-1.6445-4.8828-3.8984-1.6328-30.816-0.023438-61.691-0.023438-92.531 0.12109-2.2188 1.8711-3.9727 4.4531-4.2852 26.977-1.0938 54.035-1.0938 81.012 0zm268.34 0c2.3867 0.28906 4.1055 1.8008 4.4414 3.875 1.6211 30.816 0.011719 61.691 0.011719 92.531-0.12109 2.2578-1.957 3.9844-4.4531 4.2852-26.82 1.0938-53.699 0.023437-80.555 0.023437-2.5195-0.10938-4.5234-1.6445-4.8828-3.8984-1.6211-30.816-0.023438-61.691-0.023438-92.531 0.12109-2.2578 1.9688-3.9844 4.4531-4.2852 26.977-1.0938 54.035-1.0938 81.012 0zm737.69 0c2.3867 0.28906 4.1055 1.8008 4.4414 3.875 1.6211 30.816 0.011719 61.691 0.011719 92.531-0.12109 2.2578-1.957 3.9844-4.4531 4.2852-26.82 1.0938-53.699 0.023437-80.555 0.023437-2.5195-0.10938-4.5234-1.6445-4.8828-3.8984-1.6211-30.816-0.023438-61.691-0.023438-92.531 0.12109-2.2578 1.9688-3.9844 4.4531-4.2852 26.977-1.0938 54.035-1.0938 81.012 0zm-402.97 4.2852v92.125h-80.113v-92.125zm134.17 0v92.125h-80.102v-92.125zm134.17 0v92.125h-80.102v-92.125zm134.18 0v92.125h-80.113v-92.125zm-871.86 0v92.125h-80.113v-92.125zm-134.18 0v92.125h-80.102v-92.125zm268.36 0v92.125h-80.113v-92.125zm134.17 0v92.125h-80.102v-92.125z" fill-rule="evenodd"/>
</svg>
