<?xml version="1.0" encoding="UTF-8"?>
<svg width="1200pt" height="1200pt" version="1.1" viewBox="0 0 1200 1200" xmlns="http://www.w3.org/2000/svg">
 <path d="m356.2 678.94c-4.1289-48.898-45.648-87.707-101.98-81.227-25.414 2.9141-45 16.414-56.914 30.828-11.629 14.062-22.934 38.316-20.746 66.406 3.3711 43.297 37.859 78.012 81.816 81.215 27.59 2.0156 50.062-7.3086 67.586-22.535 17.648-15.336 33.02-41.715 30.234-74.688zm-31.426 1.1875c-12.457-2.3633-28.801-0.82812-34.379-10.078 5.9297-8.1016 9.8984-18.156 16.008-26.09 10.871 6.9102 17.387 21.324 18.371 36.168zm-23.113-42.098c-5.6875 10.32-13.078 18.949-18.984 29.051-1.5977-0.38281-2.2578-1.6914-3.5508-2.375 5.832-9.7578 11.508-19.715 17.785-29.039 2.2305 0.13281 2.5195 2.2188 4.75 2.3633zm-10.082-5.3281c-2.4258 3.3828-5.4727 7.7656-9.4922 12.445-4.043 4.7031-7.957 12.828-16.008 10.68-5.5938-8.6523-12.023-16.441-15.996-26.699 13.418-4.0938 31.25-2.1367 41.496 3.5742zm-48.621 0c4.8945 10.727 11.102 20.113 15.406 31.414-1.4141 0.94922-2.7852 1.957-5.3281 1.7773-4.2461-10.992-9.8984-20.543-14.23-31.414 1.0078-0.97266 2.1602-1.8008 4.1523-1.7773zm-10.082 5.9297c1.7891 3.3477 3.8984 8.2578 5.9297 13.633 2.9414 7.8125 8.293 14.844 1.7656 20.16h-30.816c3.6328-15.352 11.145-26.809 23.121-33.793zm-24.898 42.094c9.4062 0.17969 24.742-0.33594 34.391 2.9531-0.16797 5.3867-6.2773 3.1797-9.4922 2.9648-7.4531-0.48047-15.961-1.5703-24.898-1.1875v-4.7305zm18.371 46.836c-9.5508-7.5352-17.09-19.945-17.785-34.391 9.707-1.2344 20.316 1.2969 29.652 2.3633 7.4648 8.0625-3.0117 16.801-8.293 25.488-1.4727 2.4375-0.875 5.6758-3.5742 6.5391zm5.9297 5.3164c5.125-10.477 12.254-18.961 18.383-28.441 2.6289-0.45703 2.0391 2.3047 3.5508 2.9531-5.0742 10.332-12.109 18.719-17.773 28.465-1.4727-0.89844-3.5391-1.2109-4.1602-2.9766zm8.3008 7.1289c6.4805-8.5547 12.395-17.652 20.16-24.898 2.9766-0.39453 4.5977 0.55078 7.1172 0.60156 5.4727 8.5664 11.004 17.051 15.422 26.676-13.465 5.1562-30.492 0.74219-42.699-2.3789zm49.812-0.58984c-6.168-9.0586-12.133-21.469-15.422-31.43 0.98438-0.99609 3.4805-0.46875 5.3281-0.60156 3.6484 9.793 9.8164 17.074 12.469 27.863-0.42188 1.5859 1.2227 1.1523 1.7656 1.7891-0.74219 1.4453-2.4219 1.9258-4.1406 2.3789zm11.27-5.9258c-5.7461-8.1133-8.1953-19.477-13.656-27.875 1.6797-1.5977 1.9805-4.7148 4.7539-6.5156 12.227-0.046875 19.992-0.75781 30.828 0-2.6055 16.148-12.098 25.449-21.926 34.391zm22.848-41.918c-10.895 1.0312-23.184 0.39453-33.492-1.5234 1.2461-1.3555 0.45703-3.2891 0.57422-5.0625 10.332 1.5234 19.512-0.61328 30.254 2.293 1.2109 1.1289 1.7539-0.3125 2.5781-0.49219 0.90234 1.3438 0.51953 3.0586 0.085937 4.7852z"/>
 <path d="m1078.9 627.95c-17.699-18.098-42.254-30.742-77.664-26.688-13.246 1.5234-21.348 5.2695-30.238 10.094-24.637 13.309-44.328 36.109-46.836 70.547-3.9961 54.961 35.699 94.465 81.816 97.824 53.688 3.8984 94.176-34.262 97.812-82.402 2.3398-30.414-11.102-55.312-24.891-69.375zm-23.699 21.934c9.1797 3.3477-4.2461 11.699-8.293 15.422-5.3984 4.9453-10.02 8.5312-12.445 11.855-7.7539-3.9609 2.3164-9.8281 7.7031-14.832 5.7539-5.3516 9.5312-8.6641 13.035-12.445zm-4.75-4.7383c-3.5156 2.3633-7.5 5.9414-12.445 9.4805-5.0391 3.6367-11.281 9.8164-17.207 7.1289-2.832-9.8281-7.4883-20.941-8.293-30.828 16.691 0.69531 28.367 6.3945 37.945 14.219zm-44.461-15.422c0.50391-0.10938 0.55078 0.25391 0.58984 0.60156 1.0078 8.4492 5.7734 17.941 4.7539 29.652-0.19141 2.1016 0.97266 5.8203-2.375 5.9297-4.8125-9.8164-5.8203-23.426-8.8906-34.98 1.2305 0.80078 4.9023 0.070313 5.9219-1.2031zm-11.855 5.3398c1.3203 11.207 8.8555 31.402-2.3633 36.168-10.008-3.8164-18.254-4.1523-29.664-7.7148 7.0781-13.09 16.797-23.52 32.027-28.453zm-34.98 34.395c12.238 3.1797 23.734 7.1055 35.578 10.668 0.45703 2.4492-0.91016 3.0469-0.60156 5.3281-12.406-3.5898-24.406-7.6211-36.742-11.258 0.78125-1.3906 0.96094-3.3711 1.7656-4.7383zm-2.9648 11.855c4.7656-0.23828 10.188 1.9219 17.195 4.7383 9.0977 3.6484 15.695 5.0039 15.422 13.633-8.3047 6.5156-13.836 15.816-23.137 21.336-6.4062-9.875-10.262-24.516-9.4805-39.707zm18.371 50.977c-1.5586-1.4023-3.5742-2.3516-4.1523-4.7383 9.3594-7.4531 17.734-15.863 26.688-23.723 2.3633-0.19141 1.6094 2.7461 3.5508 2.9648-7.6992 9.5-17.793 16.59-26.086 25.496zm5.9414 3.5625c6.2539-7.3789 15.012-12.254 21.926-18.973 1.5586 1.2109 4.3672 1.1641 5.9414 2.3633 2.6406 9.4062 6.0586 18.047 8.2812 27.863-15.711-0.070313-27.328-4.2812-36.148-11.254zm45.637 9.4922c-3.6953-2.6641-3.1562-8.6875-4.1523-13.645-1.043-5.3281-2.6406-10.176-2.9531-16.008v-1.7773h4.7539c1.2344 10.812 4.3672 19.754 5.3281 30.828-1.6914-0.48828-1.5508 0.84375-2.9766 0.60156zm10.68-3.5625c-3.2891-9.0352-4.4023-19.188-5.3281-28.465 8.2305-9.9492 20.746 0.71875 32.004 2.375-5.4727 12.109-15.098 20.078-26.676 26.09zm30.227-32.605c-10.57-3.0586-21.07-6.1914-30.816-10.078v-3.5625c12.828-1.1406 21.383 6.5039 32.605 8.9023-0.86328 1.3047-1.8125 2.543-1.7891 4.7383zm3.5664-10.68c-9.7422-2.8906-17.652-7.6445-27.266-10.68-4.7148-8.3984 1.9336-10.883 7.7148-17.195 4.5586-4.9805 7.0078-8.7461 10.68-11.258 6.9141 9.1094 9.2188 24.551 8.8711 39.133z"/>
 <path d="m1182.6 683.4s-0.011719-1.6328-0.023438-4.3789h4.0195v-42.133h-4.1289v-0.058594c-20.305-18.254-14.941-62.785-39.719-76.609 0.5625-2.5938 0.88672-5.7227 0.88672-9.0859 0-8.8555-2.2305-16.043-4.957-16.043-2.7461 0-4.957 7.1875-4.957 16.043 0 2.0391 0.13281 3.9727 0.33594 5.7734-56.746-24.098-123.85-31.727-192.04-42.098-23.352-3.5508-47.555-9.9609-70.02-9.9961-33.324-0.070312-50.27-11.652-78.359-26.676-57.035-30.516-111.78-64.297-181.56-75.109-3.8984-0.60156-7.8594-1.1289-11.844-1.5859-83.387-10.812-178.54-2.8555-255.1 8.3281-6.2266-1.5469-8.6758-13.234-16.234-13.477-3.1328 3.8516 6.6953 16.141-0.44531 18.48-89.219 23.039-164.26 65.914-271.02 71.41-14.484 16.402-8.4492 49.895-19.094 76.98-5.125 13.043-17.219 21.926-20.004 33.348-2.7852 11.41-5.7227 36.742-5.0039 41.688 2.6523 18.07 22.801 24.047 23.352 43.332 47.965 2.6055 87.035 8.5664 126.72 16.68-2.2695-74.891 47.195-125.06 120.04-115.03 60.852 8.3633 90.277 63.758 90.023 135.05h226.75c4.0312 0.023438 7.8125 0.035157 11.844 0.070313 100.23 0.75781 197.73 4.4883 298.26 4.9336-2.9141-81.551 40.391-145.37 116.71-136.73 52.883 5.9883 90.59 59.004 85.031 120.05-0.74219 8.3867-5.4961 13.367-1.668 20.004 16.332-7.1523 71.125-2.125 75.023-23.34 1.1094-5.8008 3.3398-13.273-2.8281-19.816zm-1046.4-145.7c-0.98438 1.1055-45.898 38.891-57.098 42.816-11.195 3.9102-24.637 2.7969-24.637 2.7969s0.28906-46.188 17.074-61.859c0 0 43.105 1.6797 53.172 4.4883 10.066 2.7852 11.82 6.4688 12.312 7.5469 0.50781 1.0898 0.13672 3.0938-0.82422 4.2109zm945.92 28.824c39-6.4688 69.516 9.8984 73.367 46.668-27.082-14.172-47.492-30.863-73.367-46.668z"/>
</svg>
