<?xml version="1.0" encoding="UTF-8"?>
<svg width="1200pt" height="1200pt" version="1.1" viewBox="0 0 1200 1200" xmlns="http://www.w3.org/2000/svg">
 <path d="m1028.5 126.79h-62.812c-32.531 0-59.016 26.484-59.016 59.016v66.141h-56.203v-126.19c0-7.3594-5.9531-13.312-13.312-13.312h-474.19c-7.3594 0-13.312 5.9531-13.312 13.312v126.19h-56.203v-66.141c0-32.531-26.484-59.016-59.016-59.016h-62.812c-32.531 0-59.016 26.484-59.016 59.016v219.94c0 32.531 26.484 59.016 59.016 59.016h62.812c32.531 0 59.016-26.484 59.016-59.016v-66.141h56.203v163.22c0 1.9219 0.42188 3.7969 1.2188 5.5312l70.219 153.52v185.68h-66.656v-39.047c0-32.531-26.484-59.016-59.016-59.016h-62.812c-32.531 0-59.016 26.484-59.016 59.016v219.94c0 32.531 26.484 59.016 59.016 59.016h62.812c32.531 0 59.016-26.484 59.016-59.016v-93.281h66.656v39.984c0 3.5156 1.4062 6.9375 3.8906 9.4219l38.062 38.062c2.4844 2.4844 5.9062 3.8906 9.4219 3.8906h255.19c3.5156 0 6.9375-1.4062 9.4219-3.8906l38.062-38.062c2.4844-2.4844 3.8906-5.9062 3.8906-9.4219v-39.984h66.656v93.281c0 32.531 26.484 59.016 59.016 59.016h62.812c32.531 0 59.016-26.484 59.016-59.016v-219.94c0-32.531-26.484-59.016-59.016-59.016h-62.812c-32.531 0-59.016 26.484-59.016 59.016v39.047h-66.656v-185.68l70.219-153.52c0.79688-1.7344 1.2188-3.6562 1.2188-5.5312v-163.22h56.203v66.141c0 32.531 26.484 59.016 59.016 59.016h62.812c32.531 0 59.016-26.484 59.016-59.016v-219.94c0-32.531-26.484-59.016-59.016-59.016zm-652.22 12.375h447.52v112.88h-34.266v-65.25c0-7.3594-5.9531-13.312-13.312-13.312h-352.31c-7.3594 0-13.312 5.9531-13.312 13.312v65.25h-34.266v-112.88zm60.938 112.83v-51.938h325.64v51.938zm-170.48 153.74c0 17.859-14.531 32.391-32.391 32.391h-62.812c-17.859 0-32.391-14.531-32.391-32.391v-219.94c0-17.859 14.531-32.391 32.391-32.391h62.812c17.859 0 32.391 14.531 32.391 32.391zm60.938 622.74c0 17.859-14.531 32.391-32.391 32.391h-62.812c-17.859 0-32.391-14.531-32.391-32.391v-219.94c0-17.859 14.531-32.391 32.391-32.391h62.812c17.859 0 32.391 14.531 32.391 32.391zm424.69-58.875-30.281 30.281h-244.13l-30.281-30.281v-34.453h304.69zm120-161.06c0-17.859 14.531-32.391 32.391-32.391h62.812c17.859 0 32.391 14.531 32.391 32.391v219.94c0 17.859-14.531 32.391-32.391 32.391h-62.812c-17.859 0-32.391-14.531-32.391-32.391zm-26.672 99.984h-491.34v-34.266h491.34zm-398.02-60.938v-107.16h304.69v107.16zm59.719-207.42-45.797-100.17h276.84l-45.797 100.17c-0.79688 1.7344-1.2188 3.6562-1.2188 5.5312v68.062h-182.81v-68.062c0-1.9219-0.42188-3.7969-1.2188-5.5312zm316.36-140.21-70.219 153.52c-0.79688 1.7344-1.2188 3.6562-1.2188 5.5312v54.797h-34.266v-65.156l53.25-116.39c1.875-4.125 1.5469-8.9531-0.89062-12.75s-6.6562-6.1406-11.203-6.1406h-318.37c-4.5469 0-8.7656 2.2969-11.203 6.1406-2.4375 3.7969-2.8125 8.625-0.89062 12.75l53.25 116.39v65.156h-34.266v-54.797c0-1.9219-0.42188-3.7969-1.2188-5.5312l-70.219-153.52v-160.36h34.266v126.14c0 7.3594 5.9531 13.312 13.312 13.312h352.31c7.3594 0 13.312-5.9531 13.312-13.312v-126.14h34.266zm-60.938-160.36v112.83h-325.64v-112.83zm-469.4-26.672v-34.266h613.22v34.266zm767.44 92.812c0 17.859-14.531 32.391-32.391 32.391h-62.812c-17.859 0-32.391-14.531-32.391-32.391v-219.94c0-17.859 14.531-32.391 32.391-32.391h62.812c17.859 0 32.391 14.531 32.391 32.391z"/>
</svg>
