<?xml version="1.0" encoding="UTF-8"?>
<svg width="1200pt" height="1200pt" version="1.1" viewBox="0 0 1200 1200" xmlns="http://www.w3.org/2000/svg">
 <path d="m1169.9 528.37h-120.42c-9.9375 0-18 8.0625-18 18v58.875h-24.188v-9.8906c0-9.9375-8.0625-18-18-18s-18 8.0625-18 18v9.8906h-24.234v-39.984l39.656-22.875 3.4219 3.4219c3.5156 3.5156 8.1094 5.25 12.75 5.25 4.5938 0 9.2344-1.7344 12.75-5.25 5.9062-5.9062 6.5625-14.719 2.5781-21.609l44.016-25.406 3.4688 3.4688c3.5156 3.5156 8.1094 5.2969 12.75 5.2969 4.5938 0 9.1875-1.7344 12.703-5.25 5.9062-5.9062 6.5625-14.766 2.5312-21.656l7.7812-4.5c14.484-8.4844 23.859-22.359 26.484-39.609 2.0156-17.156-3.4219-33.188-15.375-45.141l-187.08-186.71c-12.328-12.328-28.359-17.812-44.766-15.375-17.25 2.0156-31.5 11.484-39.984 26.531l-4.2188 7.2656c-6.8906-3.9375-15.656-3.2344-21.516 2.625-7.0312 7.0312-7.0312 18.422 0 25.453l3.375 3.375-25.547 44.203c-6.8906-4.0312-15.75-3.375-21.656 2.5312-7.0312 7.0312-7.0312 18.422 0 25.453l3.4688 3.4688-22.922 39.609h-62.766v-45.609c0-9.9375-8.0625-18-18-18h-26.203l-0.09375-79.969h2.0625c8.5312 0 15.938-6 17.625-14.391l20.531-100.27h17.297c9.9375 0 18-8.0625 18-18v-63.609c0-9.9375-8.0625-18-18-18h-324.84c-9.9375 0-18 8.0625-18 18v63.609c0 9.9375 8.0625 18 18 18h16.969l20.531 100.27c1.7344 8.3906 9.0938 14.391 17.625 14.391h2.3906v80.016h-26.203c-9.9375 0-18 8.0625-18 18v45.609h-62.953c-36.75 0-66.656 30.047-66.656 66.984v72.844h-61.922c-36.938 0-66.984 30.047-66.984 66.984v61.266l-102.09-0.09375c-9.9375 0-18 8.0625-18 18v94.219c0 9.9375 8.0625 18 18 18h102.09v61.594c0 32.062 23.016 59.812 54.703 65.953 9.75 1.875 19.219-4.5 21.094-14.25s-4.5-19.219-14.25-21.094c-14.812-2.8594-25.547-15.75-25.547-30.609v-253.08c0-17.062 13.875-30.984 30.984-30.984h79.922c9.9375 0 18-8.0625 18-18v-90.844c0-17.062 13.734-30.984 30.656-30.984h426.94l156.47 156.47v407.16c0 17.062-13.875 30.984-30.984 30.984l-251.06 0.09375c-9.9375 0-18 8.0625-18 18s8.0625 18 18 18h251.06c36.938 0 66.984-30.047 66.984-66.984v-168.74h24.234v10.219c0 9.9375 8.0625 18 18 18s18-8.0625 18-18v-10.219h24.188v58.875c0 9.9375 8.0625 18 18 18h120.42c9.9375 0 18-8.0625 18-18l-0.046875-313.26c0-9.9375-8.0625-18-18-18zm-1121.9 203.76v-58.266h84.094v58.219h-84.094zm837.42-507.1c5.5781-0.79688 10.266 0.79688 14.625 5.1562l187.08 186.74c4.125 4.125 5.7656 9.1875 5.1562 14.859-0.89062 6-3.8438 10.359-8.9062 13.312l-15.188 8.7656-204.89-205.18 8.625-14.906c2.9531-5.25 7.0781-8.0156 13.5-8.7656zm150.42 247.4-43.219 24.938-173.06-173.06 25.078-43.359zm-640.55-424.45h288.84v27.609h-288.84zm35.719 63.609h217.13l-16.125 78.656h-184.92zm39.797 114.66h137.81v80.016l-137.81-0.046875zm-44.203 143.58v-27.609h226.26v27.609zm357.94 15.047 16.359-28.312 159.42 159.42-28.312 16.359zm162.52 379.87v-123.52h24.234v123.52zm204.79 76.875h-84.422v-58.875c0-9.9375-8.0625-18-18-18h-42.188v-123.52h42.188c9.9375 0 18-8.0625 18-18v-58.875h84.422zm-950.39 153.05c0 106.5 86.672 193.18 193.18 193.18 106.73 0 193.5-86.672 193.5-193.18 0-9.0469-0.84375-17.906-2.0625-26.625l64.453-45.656c23.016 12.188 49.266 19.172 77.062 19.172 90.938 0 164.95-74.156 164.95-165.28s-74.016-165.28-164.95-165.28c-30.984 0-59.859 8.7188-84.656 23.625l-55.641-35.25c0.51562-4.5938 0.79688-9.1875 0.79688-13.922 0-69.188-56.297-125.48-125.48-125.48s-125.48 56.297-125.48 125.48c0 38.672 17.625 73.266 45.188 96.328l-31.453 124.55c-85.406 19.922-149.39 96.75-149.39 188.34zm350.72 0c0 86.672-70.641 157.18-157.5 157.18-86.672 0-157.18-70.5-157.18-157.18 0-67.828 43.078-125.63 103.22-147.74l-29.484 116.81v0.046875c-3.6094 9.6562-5.625 20.016-5.625 30.891 0 49.125 39.984 89.109 89.109 89.109 19.359 0 37.266-6.2812 51.891-16.781l105.52-74.766c-0.09375 0.79688 0.046875 1.6406 0.046875 2.4375zm-157.55-53.062c29.25 0 53.109 23.812 53.109 53.109 0 29.25-23.812 53.109-53.109 53.109s-53.109-23.812-53.109-53.109c0.046875-29.297 23.859-53.109 53.109-53.109zm0-36c-11.766 0-22.969 2.3438-33.281 6.5156l18.75-74.203c4.7812-0.46875 9.6094-0.75 14.531-0.75 72.141 0 132.98 48.797 151.55 115.08l-62.531 44.344c0-0.60938 0.09375-1.2656 0.09375-1.875 0-49.172-39.984-89.109-89.109-89.109zm333.05-258.61c71.109 0 128.95 57.984 128.95 129.28s-57.844 129.28-128.95 129.28c-15 0-29.391-2.7188-42.844-7.4531l84.516-59.859c0.09375-0.046875 0.14062-0.09375 0.1875-0.14062 19.641-13.5 32.578-36.141 32.578-61.781 0-28.875-16.406-53.906-40.312-66.375l-83.672-53.016c15.281-6.375 31.969-9.9375 49.547-9.9375zm-129.32 129.28c0-39.375 17.766-74.672 45.656-98.391l50.016 31.688c-24.375 12.328-41.156 37.594-41.156 66.703 0 30.609 18.516 57 44.953 68.531l-48.281 34.219c-31.031-23.625-51.188-60.797-51.188-102.75zm129.32-38.812c21.234 0 38.484 17.391 38.484 38.812 0 21.375-17.25 38.812-38.484 38.812-21.375 0-38.812-17.391-38.812-38.812 0-21.375 17.391-38.812 38.812-38.812zm-295.5-105.84c8.7656 5.8125 19.219 9.2344 30.516 9.2344 26.391 0 48.469-18.797 53.812-43.781l30.141 19.078c-12.562 34.219-45.375 58.781-83.953 58.781-14.062 0-27.281-3.3281-39.141-9.1406zm30.516-65.25c3.4688 0 6.6562 0.98438 9.4688 2.625l1.7812 1.125c4.7344 3.4688 7.875 9.0469 7.875 15.328 0 10.688-8.5781 19.406-19.078 19.406-10.875 0-19.406-8.5312-19.406-19.406-0.09375-10.5 8.625-19.078 19.359-19.078zm-89.484 19.078c0-49.359 40.125-89.484 89.484-89.484 46.406 0 84.656 35.531 89.062 80.812l-57.891-36.656c-0.42188-0.28125-0.84375-0.5625-1.3125-0.84375l-3.2344-2.0625c-1.2188-0.75-2.4844-1.3125-3.7969-1.7812-6.9844-3.1875-14.672-5.1094-22.828-5.1094-29.25 0-53.062 22.734-55.031 51.328l-15 59.344c-12.141-15.234-19.453-34.547-19.453-55.547zm41.344 115.88c14.812 6.1875 31.078 9.6094 48.094 9.6094 51.281 0 95.438-30.984 114.89-75.141l34.969 22.125c-30.891 30.047-50.156 71.953-50.156 118.36 0 49.594 22.031 93.984 56.719 124.31l-42.094 29.812c-26.578-75.188-98.156-129.28-182.34-129.28-1.7812 0-3.5625 0.23438-5.3438 0.28125z"/>
</svg>
