<?xml version="1.0" encoding="UTF-8"?>
<svg width="1200pt" height="1200pt" version="1.1" viewBox="0 0 1200 1200" xmlns="http://www.w3.org/2000/svg">
 <path d="m392.53 803.64c-5.1758 0-9.375-4.1992-9.375-9.375 0-5.1797 4.1992-9.375 9.375-9.375h91.969c10.105-0.84375 21.168-16.762 22.258-28.688 2.3633-24.375 5.7734-60 7.2734-76.031 0.33203-4.1055-0.36328-8.2305-2.0234-12l-22.633-51.449c-2.9453-6.707-9.0039-11.531-16.199-12.902-50.832-9.1328-91.613-18.75-92.023-18.898h-0.003906c-2.3672-0.5625-4.4258-2.0195-5.7344-4.0703-0.46875-0.76953-49.445-77.289-68.383-105-5.1602-7.9023-13.984-12.633-23.418-12.562h-133.61c-5.1758 0-9.375-4.1953-9.375-9.375 0-5.1758 4.1992-9.375 9.375-9.375h133.61c15.707-0.097657 30.398 7.7734 39.02 20.906 16.742 24.543 56.98 87.207 66.523 102.11 11.043 2.5508 45.789 10.367 87.395 17.832 13.309 2.4922 24.531 11.387 30 23.773l22.648 51.488c2.8906 6.6406 4.1094 13.891 3.543 21.113-1.5195 16.199-4.9297 51.863-7.293 76.219-1.0078 10.879-5.4414 21.16-12.66 29.359-7.2188 8.1992-16.855 13.898-27.52 16.277z"/>
 <path d="m229.97 803.64h-79.969c-5.1758 0-9.375-4.1992-9.375-9.375 0-5.1797 4.1992-9.375 9.375-9.375h79.969c5.1758 0 9.375 4.1953 9.375 9.375 0 5.1758-4.1992 9.375-9.375 9.375z"/>
 <path d="m311.25 885c-24.043 0-47.102-9.5508-64.105-26.551-17-17.004-26.551-40.062-26.551-64.105s9.5508-47.102 26.551-64.105c17.004-17 40.062-26.551 64.105-26.551s47.102 9.5508 64.105 26.551c17 17.004 26.551 40.062 26.551 64.105-0.03125 24.035-9.5898 47.074-26.586 64.07-16.996 16.996-40.035 26.555-64.07 26.586zm0-162.56c-19.07 0-37.359 7.5742-50.844 21.062-13.488 13.484-21.062 31.773-21.062 50.844s7.5742 37.359 21.062 50.844c13.484 13.488 31.773 21.062 50.844 21.062s37.359-7.5742 50.844-21.062c13.488-13.484 21.062-31.773 21.062-50.844 0-19.078-7.5742-37.375-21.055-50.871-13.484-13.496-31.773-21.09-50.852-21.109z"/>
 <path d="m334.26 602.91h-184.26c-5.1758 0-9.375-4.1992-9.375-9.375s4.1992-9.375 9.375-9.375h166.55l-52.5-77.211-114.05-0.46875c-5.1758 0-9.375-4.1992-9.375-9.375 0-5.1797 4.1992-9.375 9.375-9.375l119.06 0.48828v-0.003906c3.0938 0.011718 5.9844 1.5469 7.7266 4.1094l65.195 95.945-0.003906-0.003906c1.9531 2.875 2.1562 6.5898 0.53125 9.6602-1.6289 3.0703-4.8203 4.9883-8.293 4.9844z"/>
 <path d="m311.25 833.76c-10.473 0-20.516-4.1602-27.922-11.566s-11.566-17.449-11.566-27.922c0-10.473 4.1602-20.516 11.566-27.922s17.449-11.566 27.922-11.566 20.516 4.1602 27.922 11.566 11.566 17.449 11.566 27.922c-0.011719 10.469-4.1758 20.508-11.578 27.91-7.4023 7.4023-17.441 11.566-27.91 11.578zm0-60.227c-5.5 0-10.773 2.1836-14.664 6.0742-3.8867 3.8906-6.0742 9.1641-6.0742 14.664s2.1875 10.773 6.0742 14.664c3.8906 3.8867 9.1641 6.0742 14.664 6.0742s10.773-2.1875 14.664-6.0742c3.8867-3.8906 6.0742-9.1641 6.0742-14.664-0.003906-5.5-2.1914-10.77-6.082-14.66-3.8867-3.8867-9.1562-6.0742-14.656-6.0781z"/>
 <path d="m997.59 738.26h-90.957c-3.9844 0-7.5352-2.5195-8.8477-6.2812l-53.195-152.27h-215.18c-5.1758 0-9.375-4.1953-9.375-9.375v-98.887c0-5.1758 4.1992-9.375 9.375-9.375h346.76c2.9531 0 5.7305 1.3906 7.5 3.75l73.82 98.906c2.1289 2.8398 2.4727 6.6406 0.88672 9.8203-1.5898 3.1758-4.8359 5.1797-8.3867 5.1797h-94.574l51.02 146.06c1.0078 2.8711 0.5625 6.0508-1.1953 8.5352-1.7578 2.4805-4.6133 3.957-7.6562 3.9531zm-84.375-18.75h71.156l-51-146.08c-1.0039-2.8672-0.55469-6.043 1.2031-8.5195 1.7617-2.4766 4.6094-3.9492 7.6484-3.9492h89.023l-59.832-80.137h-332.62v80.137h212.46c3.9844 0 7.5352 2.5195 8.8516 6.2812z"/>
 <path d="m805.03 423.47h-42.055c-12.434 0-24.355-4.9375-33.148-13.73-8.7891-8.7891-13.727-20.711-13.727-33.145v-95.98c0-5.1797 4.1953-9.375 9.375-9.375h117.05c2.4883 0 4.8711 0.98828 6.6289 2.7461 1.7578 1.7578 2.7461 4.1406 2.7461 6.6289v95.98c0 12.434-4.9375 24.355-13.73 33.145-8.7891 8.793-20.711 13.73-33.145 13.73zm-70.18-133.48v86.605c0 7.4609 2.9609 14.613 8.2344 19.887 5.2773 5.2734 12.43 8.2383 19.891 8.2383h42.055c7.4609 0 14.613-2.9648 19.887-8.2383 5.2734-5.2734 8.2383-12.426 8.2383-19.887v-86.605z"/>
 <path d="m805.61 480.82c-5.1797 0-9.375-4.1953-9.375-9.375v-57.355c0-5.1758 4.1953-9.375 9.375-9.375 5.1758 0 9.375 4.1992 9.375 9.375v57.355c0 5.1797-4.1992 9.375-9.375 9.375z"/>
 <path d="m762.39 480.82c-5.1797 0-9.375-4.1953-9.375-9.375v-57.355c0-5.1758 4.1953-9.375 9.375-9.375 5.1758 0 9.375 4.1992 9.375 9.375v57.355c0 5.1797-4.1992 9.375-9.375 9.375z"/>
 <path d="m767.2 659.79c-4.0977-0.003907-7.7188-2.6719-8.9375-6.5859-1.2188-3.9102 0.24219-8.1602 3.6094-10.496 43.875-30.375 27.695-66.863 27-68.398-1.6875-4.5547 0.38281-9.6484 4.7734-11.73s9.6445-0.46875 12.102 3.7227c0.22656 0.50781 24.039 52.145-33.301 91.875h0.003906c-1.5469 1.0586-3.3789 1.6211-5.25 1.6133z"/>
 <path d="m1004.5 928.76h-166.22c-15.969-0.64453-30.461-9.5391-38.266-23.488-7.8047-13.949-7.8047-30.949 0-44.898 7.8047-13.949 22.297-22.844 38.266-23.488h55.48c12.195-0.007813 23.891-4.8594 32.512-13.48 8.625-8.625 13.473-20.316 13.484-32.512v-61.875c0-5.1797 4.1953-9.375 9.375-9.375 5.1758 0 9.375 4.1953 9.375 9.375v61.875c-0.015625 17.164-6.8398 33.625-18.98 45.762-12.137 12.141-28.598 18.965-45.766 18.98h-55.48c-9.375 0.49219-17.832 5.7812-22.383 13.992-4.5508 8.207-4.5508 18.184 0 26.395 4.5508 8.2109 13.008 13.496 22.383 13.988h166.22c5.1797 0 9.375 4.1992 9.375 9.375 0 5.1797-4.1953 9.375-9.375 9.375z"/>
 <path d="m629.42 579.71c-1.0938-0.003907-2.1758-0.19531-3.207-0.5625l-80.25-29.176v0.003906c-3.7031-1.3516-6.168-4.8711-6.168-8.8125v-40.539c0-3.9414 2.4648-7.4648 6.168-8.8125l80.25-29.176c4.8672-1.7695 10.25 0.73828 12.02 5.6055 1.7734 4.8672-0.73828 10.25-5.6055 12.02l-74.082 26.926v27.414l74.082 26.926v-0.003906c4.2812 1.5547 6.8242 5.957 6.0352 10.441-0.79297 4.4844-4.6875 7.75-9.2422 7.7461z"/>
</svg>
