<?xml version="1.0" encoding="UTF-8"?>
<svg width="1200pt" height="1200pt" version="1.1" viewBox="0 0 1200 1200" xmlns="http://www.w3.org/2000/svg">
 <path d="m362.5 427.35c32.695-6.1797 91.766-15.156 164.02-16.426 2.0781 50.879 8.168 107.86 8.168 107.86l-228.41-8.0898zm-345 169.47c-2.1836 1.1445-4.8867 3.1719-8.2148 6.5312-13.734 13.867-9.3672 60.059-4.9062 71.203 4.4609 11.145 4.2227 31.473 4.2227 31.473l108.48 14.578c0.78125-12.215 2.7344-83.961 88.043-99.109 99.438 1.2227 113.62 64.41 115.73 106.11 2.1094 41.703 2.6602 24.176 2.6602 24.176s559.94-0.9375 560.29-0.76172c-4.9883-32.93 2.6289-100.86 57.469-122.32 15.73-6.1562 41.32-13.242 64.266-8.7266 45.734 9 68.07 33.055 78.051 60.051 12.48 33.758 3.8203 70.48 3.8203 70.48l91.145-8.668s9.3711-1.2227 13.238-10.762c3.8672-9.5391-4.625-16.25-4.625-16.25s8.6797-13.438 12.316-27.473c3.6367-14.031-12.863-51.828-12.863-51.828s-10.281-10.957-18.621-13.609c17.109-64.012-183.94-97.863-183.94-97.863s-24.965-7.2773-75.773-21.277c-179.88-95.645-248.84-112.44-366.33-114.82-117.49-2.3867-288.59 29.727-288.59 29.727l-1.9414 8.2266s-46.07 15.141-92.348 26.77c-38.477 9.6641-77.16 15.82-77.16 15.82s-35.75-5.3086-37.555 1.0195c-1.8047 6.3281 5.4102 14.066 5.4102 14.066s3.3203 2.4219 7.9258 5.9102c-12.363 15.559-40.371 56.441-40.195 107.34zm8.5078 1.3203c0.050781 0.11719 0.074219 0.1875 0.074219 0.1875l25.164-2.4609 35.238-68.383s3.8438-8.2227-3.1094-16.355c-2.9609-3.4609-9.4922-8.9727-16.02-14.156-37.324 47.863-41.512 85.66-41.348 101.17zm1016.4-35.418c-3.5547-2.1406-9.2383-3.957-11.379-5.7969-4.3125-3.6992-3.1133-6.6602-3.1133-6.6602s23.402-12.91 108.74 38.711c20.246 12.219 16.984 22.922 16.617 25.309 0.082031 0.34375-6.9453 1.5781-14.859 0.21875-3.5039-0.60547-7.3438 0.17969-10.547-3.0742-4-4.0625-14.062-8.2891-23.27-13.859-14.809-8.9648-29.562-18.953-29.562-18.953s-19.77-8.1602-32.629-15.895zm-682.46 111.7 485.65 14.688 0.20312 7.707-484.12-9-9.5586-13.957zm-35.527-244.64-52.805 79.773-24.516-1.6875s-15.477-5.4414-33.492-15.535c-9.9297-5.5664-21.273-11.332-29.711-21.25 30.512-16.348 140.52-41.301 140.52-41.301zm346.64-3.6602c-7.4531-2.0703-39.117-8.9531-46.785-10.398-50.316-9.4766-65.945-7.1367-65.945-7.1367l20.633 111.22 220.07 15.289s10.867-19.805 1.6641-57.215c-16.16-12.203-74.609-36.469-129.64-51.758zm318.1 386.07c49.953 0 90.445-40.496 90.445-90.445s-40.492-90.445-90.445-90.445c-49.949 0-90.441 40.496-90.441 90.445s40.492 90.445 90.441 90.445zm-0.99219-29.82c32.934 0 59.633-26.695 59.633-59.633 0-32.934-26.699-59.633-59.633-59.633s-59.633 26.699-59.633 59.633c0 32.938 26.699 59.633 59.633 59.633zm-7.7695-92.926c-3.1172-4.4766-5.0195-9.9766-5.0195-9.9766s8.918-10.695 24.391-1.4219c-2.0312 5.6602-2.8008 8.9219-3.9062 11.473-1.9375 4.4648-3.4883 5.8125-4.4805 7.3047-1.9766 0.44141-4.25 0.20312-4.25 0.20312s-4.0898-3.7812-6.7344-7.582zm31.57 8.2422c2.3203-4.9375 6.1328-9.3359 6.1328-9.3359s13.719 2.375 13.426 20.41c-5.918 1.0742-9.1289 2.0352-11.891 2.3555-4.8359 0.55469-6.7773-0.11328-8.5664-0.22656-1.3711-1.4883-2.2969-3.5781-2.2969-3.5781s1.2266-5.4336 3.1953-9.625zm8.6484 31.461c5.4336-0.45703 11.148 0.64453 11.148 0.64453s4.8047 13.07-10.961 21.832c-3.8867-4.5898-6.3281-6.8867-7.9844-9.1211-2.8984-3.9102-3.2891-5.9258-4.0859-7.5312 0.60547-1.9297 1.9492-3.7773 1.9492-3.7773s5.3164-1.6523 9.9336-2.0469zm-22.922 23.223c3.1133 4.4766 5.0156 9.9766 5.0156 9.9766s-8.9141 10.695-24.387 1.4219c2.0312-5.6602 2.8008-8.9219 3.9062-11.473 1.9375-4.4648 3.4844-5.8125 4.4805-7.3047 1.9727-0.44141 4.2461-0.20312 4.2461-0.20312s4.0898 3.7812 6.7383 7.582zm-31.574-8.2422c-2.3203 4.9375-6.1328 9.3359-6.1328 9.3359s-13.719-2.375-13.426-20.41c5.9219-1.0742 9.1289-2.0391 11.891-2.3555 4.8359-0.55469 6.7773 0.11328 8.5664 0.22656 1.3711 1.4883 2.3008 3.5781 2.3008 3.5781s-1.2305 5.4336-3.1992 9.625zm-8.6484-31.465c-5.4336 0.46094-11.148-0.64062-11.148-0.64062s-4.8047-13.07 10.961-21.832c3.8906 4.5898 6.3281 6.8867 7.9844 9.1172 2.8984 3.9141 3.2891 5.9297 4.0859 7.5352-0.60156 1.9297-1.9492 3.7773-1.9492 3.7773s-5.3164 1.6523-9.9336 2.043zm21.902 13.516c1.0195-3.1328-0.69531-6.5-3.8281-7.5156-3.1328-1.0195-6.4961 0.69531-7.5117 3.8281-1.0195 3.1328 0.69531 6.4961 3.8281 7.5156 3.1328 1.0156 6.4961-0.69922 7.5117-3.8281zm10.574 4.3164c-2.6641-1.9336-6.3945-1.3438-8.332 1.3203-1.9336 2.6641-1.3438 6.3945 1.3203 8.3281 2.6641 1.9375 6.3945 1.3477 8.3281-1.3203 1.9375-2.6641 1.3477-6.3906-1.3164-8.3281zm7.3711-8.7188c-2.6641 1.9336-3.2539 5.6641-1.3164 8.3281 1.9336 2.6641 5.6641 3.2539 8.3281 1.3203 2.6641-1.9375 3.2539-5.6641 1.3203-8.3281-1.9375-2.668-5.6641-3.2578-8.332-1.3203zm-6.0117-9.707c1.0156 3.1289 4.3828 4.8438 7.5117 3.8281 3.1328-1.0195 4.8477-4.3828 3.832-7.5156-1.0195-3.1328-4.3828-4.8477-7.5156-3.8281-3.1328 1.0156-4.8477 4.3828-3.8281 7.5156zm-11.094 2.7188c3.2969 0 5.9648-2.6719 5.9648-5.9648 0-3.293-2.668-5.9609-5.9648-5.9609-3.293 0-5.9609 2.668-5.9609 5.9609 0 3.293 2.668 5.9648 5.9609 5.9648zm6.957 11.926c2.7461 0 4.9727-2.2227 4.9727-4.9688 0-2.7461-2.2266-4.9688-4.9727-4.9688-2.7422 0-4.9688 2.2227-4.9688 4.9688 0 2.7461 2.2266 4.9688 4.9688 4.9688zm-769.44 85.477c49.949 0 90.445-40.496 90.445-90.445s-40.496-90.445-90.445-90.445c-49.949 0-90.445 40.496-90.445 90.445s40.496 90.445 90.445 90.445zm-0.99219-29.82c32.934 0 59.633-26.695 59.633-59.633 0-32.934-26.699-59.633-59.633-59.633-32.938 0-59.637 26.699-59.637 59.633 0 32.938 26.699 59.633 59.637 59.633zm-7.7734-92.926c-3.1133-4.4766-5.0156-9.9766-5.0156-9.9766s8.9141-10.695 24.387-1.4219c-2.0312 5.6602-2.8008 8.9219-3.9062 11.473-1.9375 4.4648-3.4844 5.8125-4.4805 7.3047-1.9727 0.44141-4.2461 0.20312-4.2461 0.20312s-4.0898-3.7812-6.7383-7.582zm31.574 8.2422c2.3164-4.9375 6.1328-9.3359 6.1328-9.3359s13.719 2.375 13.426 20.41c-5.9219 1.0742-9.1289 2.0352-11.891 2.3555-4.8359 0.55469-6.7773-0.11328-8.5664-0.22656-1.3711-1.4883-2.3008-3.5781-2.3008-3.5781s1.2305-5.4336 3.1992-9.625zm8.6484 31.461c5.4336-0.45703 11.148 0.64453 11.148 0.64453s4.8047 13.07-10.961 21.832c-3.8906-4.5898-6.3281-6.8867-7.9844-9.1211-2.8984-3.9102-3.293-5.9258-4.0859-7.5312 0.60156-1.9297 1.9453-3.7773 1.9453-3.7773s5.3203-1.6523 9.9375-2.0469zm-22.926 23.223c3.1172 4.4766 5.0195 9.9766 5.0195 9.9766s-8.918 10.695-24.391 1.4219c2.0312-5.6602 2.8008-8.9219 3.9062-11.473 1.9375-4.4648 3.4883-5.8125 4.4805-7.3047 1.9766-0.44141 4.2461-0.20312 4.2461-0.20312s4.0938 3.7812 6.7383 7.582zm-31.57-8.2422c-2.3203 4.9375-6.1328 9.3359-6.1328 9.3359s-13.723-2.375-13.426-20.41c5.918-1.0742 9.1289-2.0391 11.891-2.3555 4.8359-0.55469 6.7773 0.11328 8.5664 0.22656 1.3711 1.4883 2.2969 3.5781 2.2969 3.5781s-1.2266 5.4336-3.1953 9.625zm-8.6484-31.465c-5.4336 0.46094-11.152-0.64062-11.152-0.64062s-4.8008-13.07 10.965-21.832c3.8867 4.5898 6.3281 6.8867 7.9844 9.1172 2.8984 3.9141 3.2891 5.9297 4.0859 7.5352-0.60547 1.9297-1.9492 3.7773-1.9492 3.7773s-5.3203 1.6523-9.9336 2.043zm21.902 13.516c1.0156-3.1328-0.69531-6.5-3.8281-7.5156-3.1328-1.0195-6.4961 0.69531-7.5156 3.8281-1.0156 3.1328 0.69531 6.4961 3.8281 7.5156 3.1328 1.0156 6.4961-0.69922 7.5156-3.8281zm10.57 4.3164c-2.6641-1.9336-6.3906-1.3438-8.3281 1.3203-1.9375 2.6641-1.3438 6.3945 1.3203 8.3281 2.6641 1.9375 6.3945 1.3477 8.3281-1.3203 1.9375-2.6641 1.3438-6.3906-1.3203-8.3281zm7.375-8.7188c-2.6641 1.9336-3.2539 5.6641-1.3203 8.3281 1.9375 2.6641 5.668 3.2539 8.332 1.3203 2.6641-1.9375 3.2539-5.6641 1.3203-8.3281-1.9375-2.668-5.668-3.2578-8.332-1.3203zm-6.0156-9.707c1.0195 3.1289 4.3828 4.8438 7.5156 3.8281 3.1328-1.0195 4.8477-4.3828 3.8281-7.5156-1.0156-3.1328-4.3828-4.8477-7.5117-3.8281-3.1328 1.0156-4.8477 4.3828-3.832 7.5156zm-11.09 2.7188c3.293 0 5.9648-2.6719 5.9648-5.9648 0-3.293-2.6719-5.9609-5.9648-5.9609s-5.9648 2.668-5.9648 5.9609c0 3.293 2.6719 5.9648 5.9648 5.9648zm6.957 11.926c2.7461 0 4.9688-2.2227 4.9688-4.9688 0-2.7461-2.2227-4.9688-4.9688-4.9688-2.7422 0-4.9688 2.2227-4.9688 4.9688 0 2.7461 2.2266 4.9688 4.9688 4.9688z" fill-rule="evenodd"/>
</svg>
